<?xml version="1.0" encoding="utf-8"?>
<!-- Generator: Adobe Illustrator 23.0.0, SVG Export Plug-In . SVG Version: 6.00 Build 0)  -->
<!DOCTYPE svg PUBLIC "-//W3C//DTD SVG 1.1//EN" "http://www.w3.org/Graphics/SVG/1.1/DTD/svg11.dtd" [
	<!ENTITY ns_extend "http://ns.adobe.com/Extensibility/1.0/">
	<!ENTITY ns_ai "http://ns.adobe.com/AdobeIllustrator/10.0/">
	<!ENTITY ns_graphs "http://ns.adobe.com/Graphs/1.0/">
	<!ENTITY ns_vars "http://ns.adobe.com/Variables/1.0/">
	<!ENTITY ns_imrep "http://ns.adobe.com/ImageReplacement/1.0/">
	<!ENTITY ns_sfw "http://ns.adobe.com/SaveForWeb/1.0/">
	<!ENTITY ns_custom "http://ns.adobe.com/GenericCustomNamespace/1.0/">
	<!ENTITY ns_adobe_xpath "http://ns.adobe.com/XPath/1.0/">
]>
<svg version="1.1" id="图层_1" xmlns:x="&ns_extend;" xmlns:i="&ns_ai;" xmlns:graph="&ns_graphs;"
	 xmlns="http://www.w3.org/2000/svg" xmlns:xlink="http://www.w3.org/1999/xlink" x="0px" y="0px" viewBox="0 0 200 200"
	 style="enable-background:new 0 0 200 200;" xml:space="preserve">
<style type="text/css">
	.st0{fill:#6783E9;}
</style>
<metadata>
	<sfw  xmlns="&ns_sfw;">
		<slices></slices>
		<sliceSourceBounds  bottomLeftOrigin="true" height="200" width="161.49" x="19.25" y="0"></sliceSourceBounds>
	</sfw>
</metadata>
<path class="st0" d="M174.53,23.6c-3.73,0-6.21,2.48-6.21,6.21v144.1c0,6.21-6.21,12.42-12.42,12.42H46.58
	c-7.45,0-16.15-6.21-16.15-12.42v-13.66c0-6.21,7.45-9.94,14.91-9.94h104.35c3.73,0,6.21-2.48,6.21-6.21V22.36
	C155.9,8.7,145.96,0,131.06,0H46.58C32.92,0,19.25,7.45,19.25,22.36v152.8c0,0,0,0,0,1.24c0,1.24,0,1.24,0,2.48
	c1.24,11.18,12.42,19.88,23.6,21.12h1.24c0,0,0,0,1.24,0H155.9c13.66,0,24.84-11.18,24.84-23.6V29.81
	C180.75,27.33,178.26,23.6,174.53,23.6z M150.93,162.73H49.07c-3.73,0-6.21,2.48-6.21,6.21c0,3.73,2.48,6.21,6.21,6.21h101.86
	c3.73,0,6.21-2.48,6.21-6.21C157.14,165.22,154.66,162.73,150.93,162.73z"/>
</svg>
