<?xml version="1.0" encoding="utf-8"?>
<!-- Generator: Adobe Illustrator 23.0.0, SVG Export Plug-In . SVG Version: 6.00 Build 0)  -->
<!DOCTYPE svg PUBLIC "-//W3C//DTD SVG 1.1//EN" "http://www.w3.org/Graphics/SVG/1.1/DTD/svg11.dtd" [
	<!ENTITY ns_extend "http://ns.adobe.com/Extensibility/1.0/">
	<!ENTITY ns_ai "http://ns.adobe.com/AdobeIllustrator/10.0/">
	<!ENTITY ns_graphs "http://ns.adobe.com/Graphs/1.0/">
	<!ENTITY ns_vars "http://ns.adobe.com/Variables/1.0/">
	<!ENTITY ns_imrep "http://ns.adobe.com/ImageReplacement/1.0/">
	<!ENTITY ns_sfw "http://ns.adobe.com/SaveForWeb/1.0/">
	<!ENTITY ns_custom "http://ns.adobe.com/GenericCustomNamespace/1.0/">
	<!ENTITY ns_adobe_xpath "http://ns.adobe.com/XPath/1.0/">
]>
<svg version="1.1" id="图层_1" xmlns:x="&ns_extend;" xmlns:i="&ns_ai;" xmlns:graph="&ns_graphs;"
	 xmlns="http://www.w3.org/2000/svg" xmlns:xlink="http://www.w3.org/1999/xlink" x="0px" y="0px" viewBox="0 0 200 200"
	 style="enable-background:new 0 0 200 200;" xml:space="preserve">
<style type="text/css">
	.st0{fill:#FFFFFF;}
</style>
<metadata>
	<sfw  xmlns="&ns_sfw;">
		<slices></slices>
		<sliceSourceBounds  bottomLeftOrigin="true" height="200" width="199.99" x="0.01" y="0"></sliceSourceBounds>
	</sfw>
</metadata>
<path class="st0" d="M183.5,16.53c-21.96-22-57.6-22.04-79.6-0.09c-0.03,0.03-0.06,0.06-0.09,0.09L78.57,41.76l13.29,13.29
	l25.23-25.24c14.01-14,37.66-15.49,53.13,0c15.49,15.5,14,39.13,0,53.14l-25.23,25.23l13.3,13.3l25.23-25.23
	C205.5,74.22,205.49,38.55,183.5,16.53L183.5,16.53z M82.96,170.24c-14.01,14-37.66,15.49-53.13,0c-15.5-15.51-14-39.14,0-53.14
	l25.23-25.23l-13.3-13.31L16.53,103.8c-22,21.97-22.03,57.62-0.07,79.62c0.02,0.02,0.04,0.04,0.07,0.07
	c21.98,22,57.64,22.01,79.64,0.03c0.01-0.01,0.02-0.02,0.03-0.03l25.24-25.24l-13.29-13.29L82.96,170.24L82.96,170.24z M34.47,21.2
	c-0.81-0.81-2.13-0.81-2.94,0L21.21,31.51c-0.81,0.81-0.81,2.13,0,2.94l144.36,144.39c0.81,0.81,2.14,0.81,2.94,0l10.31-10.3
	c0.81-0.81,0.81-2.13,0-2.94L34.47,21.21V21.2z"/>
</svg>
