<?xml version="1.0" encoding="utf-8"?>
<!-- Generator: Adobe Illustrator 23.0.0, SVG Export Plug-In . SVG Version: 6.00 Build 0)  -->
<!DOCTYPE svg PUBLIC "-//W3C//DTD SVG 1.1//EN" "http://www.w3.org/Graphics/SVG/1.1/DTD/svg11.dtd" [
	<!ENTITY ns_extend "http://ns.adobe.com/Extensibility/1.0/">
	<!ENTITY ns_ai "http://ns.adobe.com/AdobeIllustrator/10.0/">
	<!ENTITY ns_graphs "http://ns.adobe.com/Graphs/1.0/">
	<!ENTITY ns_vars "http://ns.adobe.com/Variables/1.0/">
	<!ENTITY ns_imrep "http://ns.adobe.com/ImageReplacement/1.0/">
	<!ENTITY ns_sfw "http://ns.adobe.com/SaveForWeb/1.0/">
	<!ENTITY ns_custom "http://ns.adobe.com/GenericCustomNamespace/1.0/">
	<!ENTITY ns_adobe_xpath "http://ns.adobe.com/XPath/1.0/">
]>
<svg version="1.1" id="图层_1" xmlns:x="&ns_extend;" xmlns:i="&ns_ai;" xmlns:graph="&ns_graphs;"
	 xmlns="http://www.w3.org/2000/svg" xmlns:xlink="http://www.w3.org/1999/xlink" x="0px" y="0px" viewBox="0 0 200 200"
	 style="enable-background:new 0 0 200 200;" xml:space="preserve">
<style type="text/css">
	.st0{fill:#6783E9;}
</style>
<metadata>
	<sfw  xmlns="&ns_sfw;">
		<slices></slices>
		<sliceSourceBounds  bottomLeftOrigin="true" height="160.76" width="175" x="12.5" y="19.62"></sliceSourceBounds>
	</sfw>
</metadata>
<path class="st0" d="M174.75,45.83c3.38,0,5.99,0.47,7.83,1.4c0.91,0.41,1.69,0.87,2.35,1.41c0.62,0.5,1.14,1.11,1.54,1.79
	c0.81,1.34,1.12,2.74,1.01,4.2c0,0.54-0.06,1.04-0.11,1.49c-0.06,0.48-0.15,0.91-0.2,1.3c-0.07,0.41-0.17,0.81-0.3,1.2l-2.33,6.61
	l-3.72,10.98l-4.12,11.81l-3.12,9.4c-0.7,2.05-1.58,4.02-2.65,5.9c-0.83,1.48-1.92,2.81-3.22,3.91c-2.36,1.87-5.24,2.81-8.63,2.81
	H65.92l2.76,15.94h89.24c5.73,0,8.59,2.46,8.59,7.4c0,2.4-0.58,4.46-1.74,6.2c-1.05,1.73-3.27,2.61-6.66,2.61H65.15
	c-1.43,0-2.85-0.24-4.21-0.71c-0.6-0.21-1.17-0.51-1.67-0.9c-1.59-1.09-2.92-2.52-3.9-4.19c-1.13-1.76-2.04-3.65-2.74-5.63
	c-0.65-2.53-1.12-4.46-1.38-5.79l-0.97-5.21l-1.96-10.14l-2.53-13.79l-2.94-15.4l-7.64-40.2H21.9c-1.82,0-3.26-0.41-4.31-1.2
	c-1.17-0.94-2.22-2.01-3.13-3.2c-0.24-0.75-0.54-1.49-0.88-2.2c-0.31-0.64-0.54-1.31-0.68-2.01c-0.23-1.25-0.37-2.53-0.39-3.8
	c0-2.4,0.79-4.4,2.34-6.01c0.91-0.65,1.91-1.19,2.94-1.6c1.04-0.39,2.23-0.6,3.53-0.6h18c2.35,0,4.25,0.33,5.68,1
	c0.65,0.4,1.27,0.8,1.85,1.2c0.59,0.4,1.14,0.87,1.67,1.4c0.78,1.19,1.31,2.33,1.57,3.4l0.96,3.21c0.14,0.52,0.32,1.52,0.59,2.99
	v0.99l0.79,5.2l0.97,6.81L174.75,45.83L174.75,45.83z M144.99,147.38c2.21,0.01,4.4,0.41,6.47,1.2c2.11,0.8,3.85,2,5.3,3.61
	c1.54,1.61,2.8,3.31,3.7,5.19c1.22,3.08,1.53,6.45,0.9,9.71c-0.2,1.14-0.51,2.18-0.9,3.11c-0.91,1.87-2.16,3.67-3.7,5.39
	c-1.51,1.51-3.31,2.68-5.3,3.42c-1.94,0.93-4.11,1.38-6.43,1.38c-2.37,0-4.53-0.45-6.47-1.38c-1.89-0.81-3.63-1.97-5.11-3.42
	c-1.46-1.59-2.65-3.41-3.52-5.39c-0.93-2.01-1.4-4.21-1.39-6.42c0-1.04,0.11-2.12,0.3-3.18c0.2-1.08,0.56-2.12,1.08-3.21
	c0.77-1.88,1.98-3.58,3.52-5.18c0.67-0.83,1.47-1.54,2.36-2.11c0.91-0.6,1.82-1.08,2.74-1.5c1.33-0.58,2.74-0.95,4.19-1.08
	c0.73-0.1,1.48-0.13,2.29-0.13L144.99,147.38L144.99,147.38z M71.22,146.97c2.22,0,4.37,0.41,6.47,1.21
	c1.95,0.81,3.71,2.01,5.27,3.62c0.78,0.78,1.48,1.63,2.06,2.49c0.58,0.87,1.06,1.77,1.47,2.69c0.91,2.13,1.37,4.3,1.37,6.53
	c0,2.18-0.46,4.29-1.37,6.27c-0.86,1.99-2.06,3.83-3.54,5.42c-1.57,1.47-3.39,2.66-5.37,3.49c-2,0.87-4.17,1.32-6.36,1.3
	c-2.36,0-4.51-0.41-6.47-1.21c-1.93-0.92-3.71-2.13-5.27-3.58c-1.48-1.59-2.68-3.42-3.54-5.42c-0.79-2-1.18-4.14-1.18-6.29
	c0-2.21,0.39-4.37,1.18-6.5c0.38-0.95,0.89-1.83,1.47-2.71c0.58-0.85,1.28-1.7,2.05-2.51c0.53-0.52,1.12-0.97,1.76-1.4l1.57-1.21
	c0.65-0.37,1.3-0.69,1.95-0.97c0.53-0.14,1.05-0.3,1.57-0.5c0.5-0.21,1.03-0.35,1.56-0.41l1.66-0.19
	C70.15,147,70.7,146.98,71.22,146.97L71.22,146.97L71.22,146.97z"/>
</svg>
