<?xml version="1.0" encoding="utf-8"?>
<!-- Generator: Adobe Illustrator 23.0.0, SVG Export Plug-In . SVG Version: 6.00 Build 0)  -->
<!DOCTYPE svg PUBLIC "-//W3C//DTD SVG 1.1//EN" "http://www.w3.org/Graphics/SVG/1.1/DTD/svg11.dtd" [
	<!ENTITY ns_extend "http://ns.adobe.com/Extensibility/1.0/">
	<!ENTITY ns_ai "http://ns.adobe.com/AdobeIllustrator/10.0/">
	<!ENTITY ns_graphs "http://ns.adobe.com/Graphs/1.0/">
	<!ENTITY ns_vars "http://ns.adobe.com/Variables/1.0/">
	<!ENTITY ns_imrep "http://ns.adobe.com/ImageReplacement/1.0/">
	<!ENTITY ns_sfw "http://ns.adobe.com/SaveForWeb/1.0/">
	<!ENTITY ns_custom "http://ns.adobe.com/GenericCustomNamespace/1.0/">
	<!ENTITY ns_adobe_xpath "http://ns.adobe.com/XPath/1.0/">
]>
<svg version="1.1" id="图层_1" xmlns:x="&ns_extend;" xmlns:i="&ns_ai;" xmlns:graph="&ns_graphs;"
	 xmlns="http://www.w3.org/2000/svg" xmlns:xlink="http://www.w3.org/1999/xlink" x="0px" y="0px" viewBox="0 0 200 200"
	 style="enable-background:new 0 0 200 200;" xml:space="preserve">
<style type="text/css">
	.st0{fill:#6783E9;}
</style>
<metadata>
	<sfw  xmlns="&ns_sfw;">
		<slices></slices>
		<sliceSourceBounds  bottomLeftOrigin="true" height="143.59" width="178.84" x="10.38" y="28.45"></sliceSourceBounds>
	</sfw>
</metadata>
<path class="st0" d="M188.12,138.79l-36.22,32c-0.56,0.52-1.27,0.75-1.97,0.75c-0.44,0-0.86-0.09-1.28-0.3
	c-1.05-0.53-1.76-1.64-1.76-2.86v-16.12h-14.98c-8.72-0.04-17.41-3.04-26.5-9.27c-4.49-3.08-8.99-6.85-14.15-11.84
	c-0.61-0.58-0.94-1.39-0.96-2.24c-0.03-0.87,0.26-1.68,0.84-2.3c3.13-3.42,6.19-6.86,9.21-10.29c2.28-2.58,4.47-5.06,6.62-7.45
	c1.15-1.25,3.04-1.33,4.28-0.16c1.93,1.89,3.62,3.42,5.15,4.69c5.95,5.11,11.64,8.12,15.27,8.12h15.22v-17.28
	c0-1.24,0.7-2.41,1.76-2.92c1.07-0.5,2.35-0.34,3.25,0.46l36.22,32.13c0.7,0.61,1.1,1.49,1.1,2.44
	C189.22,137.29,188.81,138.17,188.12,138.79z"/>
<path class="st0" d="M10.38,51.28c0-1.71,1.36-3.17,3.04-3.17h20.91c8.63,0.04,17.23,3.07,26.24,9.33c4.49,3.1,8.98,6.91,14.1,11.94
	c0.6,0.56,0.95,1.39,0.96,2.23c0.04,0.84-0.28,1.68-0.84,2.3c-2.92,3.22-5.81,6.45-8.65,9.67c-2.47,2.8-4.84,5.48-7.18,8.06
	c-0.59,0.68-1.39,1-2.19,1c-0.75,0-1.49-0.3-2.07-0.84c-2.03-1.98-3.77-3.57-5.33-4.9c-6.89-5.96-12.16-8.03-14.81-8.03l-21.15,0
	c-1.67,0-3.04-1.43-3.04-3.17L10.38,51.28L10.38,51.28z"/>
<path class="st0" d="M13.42,152.27c-1.67,0-3.04-1.43-3.04-3.2l0-24.36c0-1.76,1.36-3.19,3.04-3.19h20.56c2.8,0,6.5-1.52,10.55-4.3
	c4.37-2.98,9.74-7.79,15.94-14.39c3.92-4.09,7.81-8.53,11.95-13.18c8.11-9.25,16.54-18.81,25.68-26.61
	c8.13-6.86,19.28-14.78,33.45-14.94h15.36V31.14c0-1.24,0.7-2.38,1.76-2.91c1.07-0.5,2.35-0.32,3.25,0.46l36.22,32.12
	c0.7,0.6,1.1,1.51,1.1,2.46c0,0.94-0.42,1.8-1.1,2.44l-36.22,32c-0.9,0.78-2.18,0.99-3.25,0.47c-1.05-0.53-1.76-1.67-1.76-2.89
	V78.86h-15.33c-1.58,0-4.84,0.53-10.14,4.24c-4.33,2.95-9.65,7.79-15.82,14.39c-3.77,4.01-7.52,8.27-11.52,12.8
	c-8.31,9.4-16.9,19.16-26.27,27.09c-8.25,6.88-19.48,14.75-33.83,14.89c0,0,0,0-0.01,0L13.42,152.27L13.42,152.27z"/>
</svg>
