<?xml version="1.0" encoding="utf-8"?>
<!-- Generator: Adobe Illustrator 23.0.0, SVG Export Plug-In . SVG Version: 6.00 Build 0)  -->
<!DOCTYPE svg PUBLIC "-//W3C//DTD SVG 1.1//EN" "http://www.w3.org/Graphics/SVG/1.1/DTD/svg11.dtd" [
	<!ENTITY ns_extend "http://ns.adobe.com/Extensibility/1.0/">
	<!ENTITY ns_ai "http://ns.adobe.com/AdobeIllustrator/10.0/">
	<!ENTITY ns_graphs "http://ns.adobe.com/Graphs/1.0/">
	<!ENTITY ns_vars "http://ns.adobe.com/Variables/1.0/">
	<!ENTITY ns_imrep "http://ns.adobe.com/ImageReplacement/1.0/">
	<!ENTITY ns_sfw "http://ns.adobe.com/SaveForWeb/1.0/">
	<!ENTITY ns_custom "http://ns.adobe.com/GenericCustomNamespace/1.0/">
	<!ENTITY ns_adobe_xpath "http://ns.adobe.com/XPath/1.0/">
]>
<svg version="1.1" id="图层_1" xmlns:x="&ns_extend;" xmlns:i="&ns_ai;" xmlns:graph="&ns_graphs;"
	 xmlns="http://www.w3.org/2000/svg" xmlns:xlink="http://www.w3.org/1999/xlink" x="0px" y="0px" viewBox="0 0 200 200"
	 style="enable-background:new 0 0 200 200;" xml:space="preserve">
<style type="text/css">
	.st0{fill:#6783E9;}
	.st1{fill:#000002;}
</style>
<metadata>
	<sfw  xmlns="&ns_sfw;">
		<slices></slices>
		<sliceSourceBounds  bottomLeftOrigin="true" height="149.26" width="149.32" x="25.53" y="25.39"></sliceSourceBounds>
	</sfw>
</metadata>
<path class="st0" d="M47.4,152.75c1.05,1.05,2.13,2.05,3.22,3.03c3.87-0.7,8.38-2.13,13.42-4.32c-16.19-11.41-26.8-30.23-26.8-51.48
	c0-34.71,28.22-62.93,62.93-62.93c21.13,0,39.84,10.47,51.27,26.48c2.15-5.06,3.52-9.69,4.1-13.61c-0.84-0.92-1.7-1.84-2.58-2.71
	c-6.86-6.86-14.84-12.23-23.73-16c-9.2-3.89-18.98-5.86-29.06-5.86c-10.08,0-19.84,1.97-29.06,5.86c-8.89,3.77-16.88,9.14-23.73,16
	s-12.23,14.84-16,23.73c-3.89,9.2-5.86,18.98-5.86,29.06c0,10.08,1.97,19.84,5.86,29.06C35.18,137.91,40.57,145.9,47.4,152.75z"/>
<path class="st1" d="M169.43,79.2c-1.91,4.14-4.2,8.4-6.82,12.73c0.33,2.64,0.51,5.31,0.51,8.03c0,34.71-28.22,62.93-62.93,62.93
	c-2.66,0-5.25-0.18-7.83-0.49c-4.53,2.75-8.98,5.16-13.3,7.17c-0.9,0.41-1.78,0.8-2.66,1.17c7.64,2.56,15.63,3.87,23.79,3.87
	c10.08,0,19.84-1.97,29.06-5.86c8.89-3.77,16.88-9.14,23.73-16s12.23-14.84,16-23.73c3.89-9.2,5.86-18.98,5.86-29.06
	c0-8.26-1.33-16.35-3.96-24.06C170.43,76.99,169.94,78.09,169.43,79.2z"/>
<path class="st0" d="M165.88,34.02c-2.97-2.97-8.55-6.37-18.26-5.7c-4.82,0.33-10.23,1.62-16.11,3.85
	c4.88,2.25,9.47,5.02,13.73,8.24c1.78-0.31,3.42-0.47,4.88-0.47c3.38,0,5.92,0.8,7.48,2.34c4.02,4.02,2.81,14.61-3.2,27.62
	c-7.11,15.37-19.86,32.68-35.92,48.73c-28.61,28.65-55.35,41.48-68.87,41.48c-3.38,0-5.92-0.8-7.48-2.34
	c-2.32-2.32-2.95-6.89-1.74-13.11c-3.18-4.26-5.9-8.83-8.12-13.69c-2.38,6.15-3.75,11.8-4.1,16.82c-0.68,9.71,2.71,15.29,5.7,18.26
	c2.71,2.71,7.6,5.78,15.82,5.78c0.78,0,1.6-0.02,2.44-0.08c6.54-0.45,14.12-2.66,22.54-6.54c16.6-7.68,35.1-21.27,52.11-38.26
	s30.59-35.51,38.26-52.11c3.89-8.42,6.09-16,6.54-22.54C172.27,42.58,168.87,36.99,165.88,34.02z"/>
<path class="st0" d="M50.55,100.1c0,3.24,2.62,5.86,5.86,5.86c3.24,0,5.86-2.62,5.86-5.86s-2.62-5.86-5.86-5.86
	C53.17,94.24,50.55,96.86,50.55,100.1z"/>
<path class="st0" d="M85.43,91.21c0,3.24,2.62,5.86,5.86,5.86s5.86-2.62,5.86-5.86s-2.62-5.86-5.86-5.86S85.43,87.97,85.43,91.21z"
	/>
<path class="st0" d="M90.23,56.41c0,5.39,4.37,9.77,9.77,9.77c5.39,0,9.77-4.37,9.77-9.77l0,0c0-5.39-4.37-9.77-9.77-9.77
	C94.61,46.64,90.23,51.01,90.23,56.41L90.23,56.41z"/>
</svg>
