<?xml version="1.0" encoding="utf-8"?>
<!-- Generator: Adobe Illustrator 23.0.0, SVG Export Plug-In . SVG Version: 6.00 Build 0)  -->
<!DOCTYPE svg PUBLIC "-//W3C//DTD SVG 1.1//EN" "http://www.w3.org/Graphics/SVG/1.1/DTD/svg11.dtd" [
	<!ENTITY ns_extend "http://ns.adobe.com/Extensibility/1.0/">
	<!ENTITY ns_ai "http://ns.adobe.com/AdobeIllustrator/10.0/">
	<!ENTITY ns_graphs "http://ns.adobe.com/Graphs/1.0/">
	<!ENTITY ns_vars "http://ns.adobe.com/Variables/1.0/">
	<!ENTITY ns_imrep "http://ns.adobe.com/ImageReplacement/1.0/">
	<!ENTITY ns_sfw "http://ns.adobe.com/SaveForWeb/1.0/">
	<!ENTITY ns_custom "http://ns.adobe.com/GenericCustomNamespace/1.0/">
	<!ENTITY ns_adobe_xpath "http://ns.adobe.com/XPath/1.0/">
]>
<svg version="1.1" id="图层_1" xmlns:x="&ns_extend;" xmlns:i="&ns_ai;" xmlns:graph="&ns_graphs;"
	 xmlns="http://www.w3.org/2000/svg" xmlns:xlink="http://www.w3.org/1999/xlink" x="0px" y="0px" viewBox="0 0 200 200"
	 style="enable-background:new 0 0 200 200;" xml:space="preserve">
<style type="text/css">
	.st0{fill:#E9EAEB;}
	.st1{fill:#FFFFFF;}
	.st2{fill:#2A5082;}
	.st3{fill:#A3D4FF;}
</style>
<metadata>
	<sfw  xmlns="&ns_sfw;">
		<slices></slices>
		<sliceSourceBounds  bottomLeftOrigin="true" height="200" width="183.13" x="8.44" y="0"></sliceSourceBounds>
	</sfw>
</metadata>
<path class="st0" d="M15.47,100.64c0,48.63,39.41,88.05,88.05,88.05s88.05-39.41,88.05-88.05s-39.41-88.07-88.05-88.07
	S15.47,52.01,15.47,100.64z"/>
<path class="st1" d="M140.21,75.33l-0.68-0.72c-3.54-3.71-3.93-9.14-0.84-12.07l13.05-12.32c4.73-4.49,11.48-5.1,15-1.41l0.68,0.72
	c3.54,3.71,2.56,10.43-2.17,14.92l-13.05,12.32C149.14,79.73,143.75,79.06,140.21,75.33z"/>
<path class="st2" d="M147.42,81.78c-3.61-0.06-7.05-1.6-9.51-4.24l-0.68-0.72c-4.75-5-5.06-12.38-0.74-16.5l13.05-12.32
	c2.66-2.6,6.11-4.22,9.82-4.61c3.55-0.41,7.11,0.82,9.63,3.36l0.68,0.72c2.4,2.66,3.44,6.27,2.83,9.79
	c-0.59,3.67-2.38,7.05-5.12,9.57l-13.05,12.32C152.46,80.86,149.98,81.82,147.42,81.78L147.42,81.78z M142.5,73.16
	c2.3,2.44,5.76,3.05,7.56,1.41l13.05-12.32c1.7-1.56,2.83-3.63,3.22-5.92c0.33-1.62-0.12-3.3-1.19-4.55l-0.68-0.72
	c-1.19-1.13-2.85-1.66-4.49-1.41c-2.27,0.27-4.39,1.27-6.04,2.85l-13.07,12.34c-1.78,1.68-1.35,5.18,0.98,7.62L142.5,73.16
	L142.5,73.16z"/>
<path class="st1" d="M74.04,91.68l-16.93-6.29l-22.64,71.54c1.31,1.04,2.58,2.09,3.79,3.16c4.36,3.85,8.3,8.14,11.76,12.81
	l21.88,3.2c4.82-5.25,8.48-8.63,12.62-12.58c32.21,2.36,47.07-21.41,50.27-25.16C137.99,134.63,74.04,91.68,74.04,91.68z"/>
<path class="st2" d="M73.14,179.47L48.3,175.9l-0.78-1.07c-3.32-4.49-7.11-8.63-11.31-12.32c-1.11-1-2.36-2.03-3.67-3.05l-1.7-1.41
	l24.26-76.7l20.39,7.54l0.31,0.21c0.16,0.1,15.23,10.23,30.21,20.96c31.35,22.4,31.76,25.43,32.05,27.44
	c0.16,1.05-0.14,2.11-0.84,2.93c-0.27,0.31-0.61,0.76-1.05,1.33c-5.08,6.62-20.37,26.58-50.47,25c-3.77,3.55-7.07,6.74-11.46,11.48
	L73.14,179.47L73.14,179.47z M51.8,170.04l18.96,2.73c4.24-4.49,7.46-7.58,11.23-11.13l1.41-1.35l1.41,0.1
	c27.6,2.03,41.74-16.41,46.41-22.48l0.08-0.1c-5.06-5.86-32.81-25.96-58.69-43.34l-13.44-4.98l-21.02,66.39
	c0.78,0.64,1.52,1.29,2.23,1.91C44.59,161.48,48.4,165.59,51.8,170.04L51.8,170.04z"/>
<path class="st0" d="M78.36,3.14h62.89c6.29,0,9.43,3.14,9.43,9.43v119.51c0,6.29-3.14,9.43-9.43,9.43H78.36
	c-6.29,0-9.43-3.14-9.43-9.43V12.58C68.93,6.29,72.07,3.14,78.36,3.14z"/>
<path class="st2" d="M141.19,144.67H78.36c-6.95,0-12.58-5.64-12.58-12.6V12.58C65.78,5.63,71.41,0,78.36,0h62.83
	c6.93,0,12.56,5.63,12.58,12.58v119.47C153.77,139,148.16,144.65,141.19,144.67z M78.36,6.29c-3.48,0-6.29,2.81-6.29,6.29v119.45
	c0,3.48,2.81,6.29,6.29,6.29h62.83c3.48,0.02,6.31-2.77,6.33-6.25V12.58c0-3.48-2.81-6.29-6.29-6.29H78.36z"/>
<path class="st1" d="M68.91,18.89h81.76v97.48H68.91V18.89z"/>
<path class="st2" d="M153.83,119.51H65.76V15.72h88.05v103.79H153.83z M72.07,113.2h75.47V22.01H72.07V113.2z"/>
<path class="st1" d="M148.91,138.71l-0.68-0.59c-3.55-3.05-4.86-7.4-2.93-9.63l8.22-9.47c3.11-3.42,8.36-3.73,11.86-0.7l0.68,0.59
	c3.5,3.01,3.96,8.26,1.04,11.82l-8.22,9.47C156.93,142.44,152.5,141.76,148.91,138.71L148.91,138.71z"/>
<path class="st2" d="M155.53,144.67c-0.51,0-1.02-0.04-1.5-0.12c-2.66-0.47-5.16-1.66-7.17-3.46l-0.68-0.59
	c-2.07-1.74-3.61-4.02-4.47-6.58c-0.92-2.54-0.47-5.37,1.21-7.48l8.24-9.47c4.22-4.77,11.48-5.23,16.27-1.04l0.64,0.57
	c2.32,1.99,3.79,4.82,4.04,7.87c0.31,3.05-0.64,6.09-2.64,8.42l-8.24,9.47C159.79,143.87,157.7,144.75,155.53,144.67L155.53,144.67z
	 M159.77,119.34c-1.46-0.02-2.87,0.63-3.83,1.72l-8.24,9.47c-0.12,0.14-0.21,0.66,0,1.52c0.51,1.43,1.39,2.7,2.56,3.67l0.68,0.59
	c1.11,1.02,2.5,1.72,3.98,2.01c0.9,0.14,1.41,0,1.52-0.18l8.24-9.47c0.88-1.04,1.31-2.36,1.17-3.71c-0.12-1.43-0.8-2.73-1.88-3.67
	l-0.68-0.59c-1-0.88-2.27-1.37-3.57-1.37L159.77,119.34L159.77,119.34z"/>
<path class="st1" d="M70.64,91.04c3.09-9.14,4.98-18.65,5.66-28.28c0.63-6.62-2.19-12.29-5.1-16.39c-2.93-4.1-10.29-3.22-11.76,1.41
	c-6.45,20.76-7.66,26.37-11.58,36.76c-4.53,11.6-1.97,27.91-4.24,32.68c-0.43,0.96-15.45,20.27-19.61,26.13
	c4.41,2.23,13.67,6.33,17.32,9.55c4.53,3.98,8.61,8.46,12.21,13.3l3.42,0.27l19.92-20.57C85.53,121.41,78.4,100.86,70.64,91.04z"/>
<path class="st2" d="M56.76,169.59l-4.86-0.39l-0.84-1.17c-3.44-4.69-7.38-8.98-11.76-12.81c-2.58-2.29-9.08-5.41-13.38-7.5
	c-1.23-0.59-2.34-1.13-3.26-1.6l-3.26-1.64l2.11-2.99c2.17-3.05,7.17-9.63,11.58-15.43c3.32-4.38,7.07-9.3,7.77-10.33
	c0.59-1.5,0.68-5.49,0.8-9.36c0.18-6.99,0.39-15.7,3.2-22.99c2.54-6.62,3.91-11.15,6.37-19.36c1.31-4.37,2.95-9.9,5.23-17.11
	c1.13-3.34,4.06-5.74,7.56-6.19c3.71-0.68,7.5,0.8,9.77,3.85c4.36,6.09,6.27,12.32,5.66,18.52c-0.66,9.32-2.44,18.52-5.31,27.4
	c8.14,11.31,14.24,32.27,5.76,56.46l-5.94-2.07c7.97-22.79,1.88-42.19-5.8-51.86l-1.05-1.33l0.57-1.62
	c3.03-8.93,4.88-18.18,5.53-27.58c0.43-4.63-1.09-9.43-4.53-14.28c-0.88-1.07-2.29-1.56-3.65-1.29c-1.13,0.1-2.11,0.82-2.56,1.86
	c-2.29,7.27-3.93,12.73-5.23,17.05c-2.44,8.09-3.89,12.97-6.52,19.8c-2.42,6.27-2.62,14.38-2.83,20.88
	c-0.14,5.25-0.23,9.41-1.41,11.97c-0.29,0.64-1,1.62-8.48,11.31c-3.24,4.24-6.8,8.91-9.28,12.27c5.14,2.48,11.46,5.55,14.65,8.38
	c4.38,3.85,8.36,8.11,11.91,12.73l2.01,0.16L56.76,169.59L56.76,169.59z"/>
<path class="st3" d="M12.89,147.13l17.07-17.07l48.38,48.42l-17.07,17.07L12.89,147.13z"/>
<path class="st2" d="M61.27,200L8.44,147.13l21.52-21.5l52.83,52.87L61.27,200z M17.32,147.13l43.95,43.96l12.64-12.62l-43.95-43.96
	L17.32,147.13L17.32,147.13z"/>
<path class="st1" d="M148.96,116.64l-0.7-0.61c-3.61-3.11-4.94-7.52-2.99-9.8l8.38-9.63c3.14-3.52,8.54-3.85,12.07-0.72l0.7,0.61
	c3.59,3.05,4.08,8.42,1.05,12.03l-8.38,9.65C157.13,120.43,152.5,119.77,148.96,116.64L148.96,116.64z"/>
<path class="st2" d="M155.72,122.66c-3.3-0.12-6.45-1.41-8.89-3.63l-0.7-0.61c-2.11-1.76-3.67-4.06-4.53-6.68
	c-0.94-2.56-0.47-5.41,1.23-7.56l8.38-9.65c2.01-2.34,4.9-3.75,7.99-3.93c3.09-0.21,6.13,0.8,8.48,2.83l0.7,0.61
	c2.36,2.01,3.83,4.88,4.08,7.97c0.29,3.09-0.68,6.15-2.71,8.48l-8.38,9.65C159.96,121.78,157.89,122.7,155.72,122.66L155.72,122.66z
	 M159.96,96.89h-0.33c-1.39,0.06-2.7,0.7-3.61,1.76l-8.38,9.65c-0.21,0.51-0.21,1.09,0,1.62c0.53,1.46,1.46,2.77,2.7,3.75l0.7,0.61
	c2.6,2.23,5.23,2.38,5.66,1.84l8.38-9.65c0.9-1.05,1.35-2.44,1.21-3.83c-0.14-1.46-0.82-2.81-1.93-3.77l-0.7-0.61
	C162.6,97.4,161.31,96.91,159.96,96.89L159.96,96.89z"/>
<path class="st1" d="M148.95,95.27l-0.7-0.61c-3.61-3.11-4.94-7.52-2.99-9.8l8.38-9.63c3.14-3.52,8.54-3.85,12.07-0.72l0.7,0.61
	c3.59,3.05,4.06,8.42,1.05,12.03l-8.36,9.53C157.13,99.02,152.5,98.34,148.95,95.27z"/>
<path class="st2" d="M155.72,101.25c-3.3-0.12-6.45-1.41-8.87-3.63l-0.7-0.61c-2.11-1.76-3.67-4.06-4.53-6.68
	c-0.94-2.56-0.47-5.41,1.23-7.56l8.38-9.65c4.28-4.82,11.64-5.29,16.48-1.04l0.7,0.61c2.36,2.01,3.83,4.88,4.08,7.97
	c0.29,3.09-0.68,6.15-2.71,8.48l-8.38,9.65C159.96,100.41,157.87,101.31,155.72,101.25L155.72,101.25z M159.96,75.47
	c-1.5-0.02-2.95,0.63-3.95,1.78l-8.38,9.65c-0.21,0.51-0.21,1.09,0,1.62c0.51,1.46,1.43,2.75,2.64,3.75l0.7,0.61
	c2.6,2.23,5.23,2.38,5.66,1.84l8.38-9.65c0.9-1.05,1.35-2.44,1.21-3.83c-0.14-1.46-0.82-2.81-1.93-3.77l-0.7-0.61
	C162.56,76,161.29,75.51,159.96,75.47z M100.35,125.8h18.87v6.29h-18.87V125.8z M98.26,57.87l-5.76-2.52
	c4.18-9.55,15.31-13.91,24.86-9.73c4.36,1.89,7.83,5.37,9.73,9.73l-5.7,2.52c-2.79-6.37-10.2-9.28-16.58-6.48
	c-2.91,1.27-5.21,3.59-6.48,6.48H98.26L98.26,57.87z"/>
<path class="st2" d="M88.87,48.93l-5.23-3.5c9.65-14.45,29.18-18.34,43.61-8.71c3.46,2.3,6.41,5.25,8.71,8.71l-5.23,3.5
	c-7.71-11.56-23.34-14.67-34.9-6.95C93.09,43.81,90.72,46.17,88.87,48.93z M113.75,97.5h-7.07c-5.21,0-9.43-4.22-9.43-9.43h6.29
	c0,1.74,1.41,3.13,3.14,3.14h7.07c1.29,0.02,2.34-1.04,2.34-2.32c0-1.02-0.64-1.93-1.62-2.25l-11.31-3.79
	c-4.53-1.5-6.97-6.39-5.47-10.9c1.17-3.52,4.43-5.88,8.13-5.92h7.07c5.21-0.02,9.45,4.2,9.47,9.41v0.02h-6.29
	c0-1.74-1.43-3.14-3.16-3.14h-7.09c-1.29-0.02-2.34,1.04-2.34,2.32c0,1.02,0.64,1.93,1.62,2.25l11.31,3.79
	c4.53,1.5,6.97,6.39,5.47,10.9C120.72,95.1,117.46,97.48,113.75,97.5z"/>
<path class="st2" d="M106.66,59.75h6.29v9.43h-6.29V59.75z M106.66,94.34h6.29v9.43h-6.29V94.34z"/>
</svg>
