<?xml version="1.0" encoding="utf-8"?>
<!-- Generator: Adobe Illustrator 23.0.0, SVG Export Plug-In . SVG Version: 6.00 Build 0)  -->
<!DOCTYPE svg PUBLIC "-//W3C//DTD SVG 1.1//EN" "http://www.w3.org/Graphics/SVG/1.1/DTD/svg11.dtd" [
	<!ENTITY ns_extend "http://ns.adobe.com/Extensibility/1.0/">
	<!ENTITY ns_ai "http://ns.adobe.com/AdobeIllustrator/10.0/">
	<!ENTITY ns_graphs "http://ns.adobe.com/Graphs/1.0/">
	<!ENTITY ns_vars "http://ns.adobe.com/Variables/1.0/">
	<!ENTITY ns_imrep "http://ns.adobe.com/ImageReplacement/1.0/">
	<!ENTITY ns_sfw "http://ns.adobe.com/SaveForWeb/1.0/">
	<!ENTITY ns_custom "http://ns.adobe.com/GenericCustomNamespace/1.0/">
	<!ENTITY ns_adobe_xpath "http://ns.adobe.com/XPath/1.0/">
]>
<svg version="1.1" id="图层_1" xmlns:x="&ns_extend;" xmlns:i="&ns_ai;" xmlns:graph="&ns_graphs;"
	 xmlns="http://www.w3.org/2000/svg" xmlns:xlink="http://www.w3.org/1999/xlink" x="0px" y="0px" viewBox="0 0 200 200"
	 style="enable-background:new 0 0 200 200;" xml:space="preserve">
<style type="text/css">
	.st0{fill:#FFFFFF;}
</style>
<metadata>
	<sfw  xmlns="&ns_sfw;">
		<slices></slices>
		<sliceSourceBounds  bottomLeftOrigin="true" height="158.33" width="158.33" x="20.83" y="20.83"></sliceSourceBounds>
	</sfw>
</metadata>
<path class="st0" d="M77.08,20.83h87.5c8.05,0,14.58,6.53,14.58,14.58l0,0v87.5c0,8.05-6.53,14.58-14.58,14.58c0,0,0,0,0,0h-87.5
	c-8.05,0-14.58-6.53-14.58-14.58l0,0v-87.5C62.5,27.36,69.03,20.83,77.08,20.83z M77.08,33.33c-1.15,0-2.08,0.93-2.08,2.08v87.5
	c0,1.15,0.93,2.08,2.08,2.08l0,0h87.5c1.15,0,2.08-0.93,2.08-2.08c0,0,0,0,0,0v-87.5c0-1.15-0.93-2.08-2.08-2.08l0,0H77.08z
	 M125,150c0-3.45,2.8-6.25,6.25-6.25c3.45,0,6.25,2.8,6.25,6.25v14.58c0,8.05-6.53,14.58-14.58,14.58c0,0,0,0,0,0h-87.5
	c-8.05,0-14.58-6.53-14.58-14.58l0,0v-87.5c0-8.05,6.53-14.58,14.58-14.58H50c3.45,0,6.25,2.8,6.25,6.25S53.45,75,50,75H35.42
	c-1.15,0-2.08,0.93-2.08,2.08v87.5c0,1.15,0.93,2.08,2.08,2.08c0,0,0,0,0,0h87.5c1.15,0,2.08-0.93,2.08-2.08c0,0,0,0,0,0L125,150
	L125,150z"/>
</svg>
