<?xml version="1.0" encoding="utf-8"?>
<!-- Generator: Adobe Illustrator 23.0.0, SVG Export Plug-In . SVG Version: 6.00 Build 0)  -->
<!DOCTYPE svg PUBLIC "-//W3C//DTD SVG 1.1//EN" "http://www.w3.org/Graphics/SVG/1.1/DTD/svg11.dtd" [
	<!ENTITY ns_extend "http://ns.adobe.com/Extensibility/1.0/">
	<!ENTITY ns_ai "http://ns.adobe.com/AdobeIllustrator/10.0/">
	<!ENTITY ns_graphs "http://ns.adobe.com/Graphs/1.0/">
	<!ENTITY ns_vars "http://ns.adobe.com/Variables/1.0/">
	<!ENTITY ns_imrep "http://ns.adobe.com/ImageReplacement/1.0/">
	<!ENTITY ns_sfw "http://ns.adobe.com/SaveForWeb/1.0/">
	<!ENTITY ns_custom "http://ns.adobe.com/GenericCustomNamespace/1.0/">
	<!ENTITY ns_adobe_xpath "http://ns.adobe.com/XPath/1.0/">
]>
<svg version="1.1" id="形状_3_1_" xmlns:x="&ns_extend;" xmlns:i="&ns_ai;" xmlns:graph="&ns_graphs;"
	 xmlns="http://www.w3.org/2000/svg" xmlns:xlink="http://www.w3.org/1999/xlink" x="0px" y="0px" viewBox="0 0 81 90"
	 style="enable-background:new 0 0 81 90;" xml:space="preserve">
<style type="text/css">
	.st0{fill:#6783E9;}
</style>
<metadata>
	<sfw  xmlns="&ns_sfw;">
		<slices></slices>
		<sliceSourceBounds  bottomLeftOrigin="true" height="71.04" width="60.86" x="73.09" y="63.98"></sliceSourceBounds>
	</sfw>
</metadata>
<g id="形状_3">
	<g>
		<path class="st0" d="M33.62,14.98c0.13,0,0.23,0,0.29,0.01l0.17,0.02h0.31h11.45c18.47,4.17,22.26,19.84,22.41,20.48l0.05,0.25
			L68.39,36c1.66,5.08,1.84,9.76,1.31,13.79L65.27,61.2c-5.2,13.38-22.1,14.74-23.32,14.82H19.1V58.98h5.99v5.42v0.45l0.08,0.44
			c0.63,3.47,3.39,5.8,6.87,5.8c0.54,0,1.11-0.06,1.67-0.17l1.17-0.23l0.94-0.74l23.57-18.4c2.37-1.56,3.13-4.3,3.05-6.26
			c-0.06-1.43-0.51-2.81-1.3-4l-0.44-0.66l-0.62-0.49l-22.9-18.11l-0.13-0.1l-0.14-0.09c-1.67-1.15-3.58-1.75-5.52-1.75
			c-1.43,0-2.86,0.32-4.27,0.94l-2.96,1.32v3.25v6.76H19.1V15.01h13.69h0.18L33.14,15C33.32,14.99,33.48,14.98,33.62,14.98
			 M33.62,9.98c-0.24,0-0.52,0.01-0.84,0.03H16.87c0,0-2.61,0.13-2.77,3.26v20.52c0,0-0.11,3.04,2.77,3.58h12.3V25.61
			c0.68-0.3,1.44-0.51,2.23-0.51c0.86,0,1.77,0.24,2.69,0.87l22.9,18.11c0.22,0.33,0.44,0.81,0.47,1.43c0,0,0.06,1.42-0.92,1.95
			L32.76,66.03c-0.22,0.04-0.47,0.07-0.71,0.07c-0.84,0-1.71-0.35-1.96-1.7V53.98H18.1c0,0-0.16-0.02-0.42-0.02
			c-1.05,0-3.73,0.41-3.58,4.58v19.22c0,0,0.1,3.07,2.77,3.26h25.22c0,0,21.19-0.86,27.85-18.01c-0.37,1.35-1.01,2.8-2.02,4.33
			c0,0,11.36-14.16,5.23-32.9c0,0-4.25-19.66-26.75-24.43H34.39C34.39,10.01,34.1,9.98,33.62,9.98L33.62,9.98z"/>
	</g>
</g>
</svg>
