<?xml version="1.0" encoding="utf-8"?>
<!-- Generator: Adobe Illustrator 23.0.0, SVG Export Plug-In . SVG Version: 6.00 Build 0)  -->
<!DOCTYPE svg PUBLIC "-//W3C//DTD SVG 1.1//EN" "http://www.w3.org/Graphics/SVG/1.1/DTD/svg11.dtd" [
	<!ENTITY ns_extend "http://ns.adobe.com/Extensibility/1.0/">
	<!ENTITY ns_ai "http://ns.adobe.com/AdobeIllustrator/10.0/">
	<!ENTITY ns_graphs "http://ns.adobe.com/Graphs/1.0/">
	<!ENTITY ns_vars "http://ns.adobe.com/Variables/1.0/">
	<!ENTITY ns_imrep "http://ns.adobe.com/ImageReplacement/1.0/">
	<!ENTITY ns_sfw "http://ns.adobe.com/SaveForWeb/1.0/">
	<!ENTITY ns_custom "http://ns.adobe.com/GenericCustomNamespace/1.0/">
	<!ENTITY ns_adobe_xpath "http://ns.adobe.com/XPath/1.0/">
]>
<svg version="1.1" id="图层_1" xmlns:x="&ns_extend;" xmlns:i="&ns_ai;" xmlns:graph="&ns_graphs;"
	 xmlns="http://www.w3.org/2000/svg" xmlns:xlink="http://www.w3.org/1999/xlink" x="0px" y="0px" viewBox="0 0 200 200"
	 style="enable-background:new 0 0 200 200;" xml:space="preserve">
<style type="text/css">
	.st0{fill:#E9EAEB;}
	.st1{fill:#2A5082;}
	.st2{fill:#A3D4FF;}
	.st3{fill:#FFFFFF;}
</style>
<metadata>
	<sfw  xmlns="&ns_sfw;">
		<slices></slices>
		<sliceSourceBounds  bottomLeftOrigin="true" height="200" width="172.01" x="13.98" y="0"></sliceSourceBounds>
	</sfw>
</metadata>
<path class="st0" d="M15.29,121.39c0,26.48,14.12,50.94,37.05,64.18s51.17,13.24,74.1,0s37.05-37.7,37.05-64.18
	c0-26.46-14.12-50.94-37.05-64.18s-51.17-13.24-74.1,0S15.29,94.92,15.29,121.39z"/>
<path class="st1" d="M122.48,104.04h-6.31v-33.2c-0.04-4.41-1.31-8.71-3.65-12.44l5.37-3.38c2.97,4.75,4.55,10.21,4.59,15.82V104.04
	z"/>
<path class="st2" d="M75.2,31.52c0,10.14,5.41,19.51,14.2,24.59s19.61,5.08,28.38,0c8.79-5.08,14.2-14.43,14.2-24.59
	c0-10.14-5.41-19.51-14.2-24.59s-19.61-5.08-28.38,0C80.61,12.01,75.2,21.39,75.2,31.52z"/>
<path class="st1" d="M103.57,63.07c-17.42,0-31.52-14.12-31.52-31.52C72.05,14.12,86.15,0,103.57,0s31.52,14.12,31.52,31.52
	C135.08,48.93,120.98,63.05,103.57,63.07L103.57,63.07z M103.57,6.31c-13.93,0-25.21,11.29-25.21,25.21s11.29,25.21,25.21,25.21
	s25.21-11.29,25.21-25.21S117.5,6.33,103.57,6.31L103.57,6.31z"/>
<path class="st0" d="M154.02,122.97l-15.76-12.62h-9.45l-9.47-6.31h-6.31l-6.31-3.14l-9.45,6.31h-6.31l-9.45,3.14l-3.16,12.62v15.78
	h75.68V122.97z"/>
<path class="st1" d="M157.19,141.89H75.2v-19.32l3.67-14.67l11.6-3.85h5.8l10.14-6.8l7.25,3.63h6.52l9.57,6.33h9.61l17.81,14.26
	v20.41H157.19z M81.5,135.59h69.36v-11.09l-13.71-10.98h-9.32l-9.45-6.29h-6.07l-5.31-2.7l-8.69,5.8h-6.8l-7.34,2.44l-2.64,10.55
	v12.27H81.5z"/>
<path class="st3" d="M157.19,119.82l-19.53,12.5c-1.35-3.73-4.88-6.23-8.85-6.25h-18.93c-4.36,0-10.94-6.31-16.15-6.31H75.2
	c-7.62,0-15.08,5.88-18.93,9.47c-5.94,5.98-17.23,17.58-18.89,18.96c9.41,8.16,27.19,25.8,31.52,29.61c5.8-5.8,8.16-10.7,13.05-10.7
	h46.82c4.36-2.44,31.52-25.21,31.52-25.21s18.42-19.82,22.03-28.36C180.12,110.43,165.84,105.78,157.19,119.82z"/>
<path class="st1" d="M69.02,182.15l-2.23-1.95c-1.7-1.45-5.21-4.88-9.67-9.16c-7.15-6.88-16.05-15.43-21.84-20.45l-2.87-2.46
	l2.89-2.38c1.02-0.82,6.93-6.84,11.7-11.6c2.56-2.6,5.06-5.12,6.99-7.05c5.14-4.79,12.89-10.37,21.15-10.37h18.57
	c3.55,0,6.99,1.91,10.33,3.77c2.15,1.19,4.57,2.54,5.8,2.54h18.95c3.91,0,7.58,1.82,9.98,4.9l16.11-10.31
	c4.22-6.45,10.29-10.16,17.17-10.43c5.25-0.2,10.78,1.72,12.85,4.53l1.07,1.45l-0.76,1.6c-3.83,8.95-21.89,28.46-22.66,29.28
	l-0.29,0.27c-2.79,2.34-27.54,23.03-32.01,25.55l-0.7,0.41H81.89c-1.93,0-3.44,1.6-6.35,4.96c-1.27,1.45-2.68,3.07-4.36,4.8
	L69.02,182.15z M42.03,148.13c5.8,5.14,13.26,12.38,19.47,18.36c2.81,2.71,5.37,5.16,7.25,6.93c0.72-0.82,1.45-1.58,2.05-2.3
	c3.34-3.83,6.21-7.13,11.09-7.13h46.02c4.36-2.89,20.04-15.78,30.25-24.36c4.61-4.98,15.94-17.85,20.21-25.12
	c-2.07-0.86-4.3-1.21-6.52-1.04c-3.34,0.25-8.14,1.87-11.99,8.05l-0.37,0.61l-18.2,11.6c0.55,3.63-0.53,7.32-2.91,10.12
	c-2.4,2.79-5.88,4.39-9.57,4.39H97.27v-6.33h31.54c2.25,0,4.34-1.21,5.47-3.14c1.13-1.95,1.13-4.36,0-6.31s-3.2-3.14-5.47-3.14
	h-18.93c-2.89,0-5.8-1.62-8.87-3.34c-2.5-1.45-5.37-2.97-7.25-2.97H75.21c-6.54,0-13.3,5.39-16.78,8.61
	c-1.84,1.84-4.36,4.36-6.88,6.93C47.36,142.77,44.16,146.02,42.03,148.13L42.03,148.13z"/>
<path class="st0" d="M18.46,151.35l18.93-18.93l44.14,44.14L62.6,195.49L18.46,151.35z"/>
<path class="st1" d="M62.6,200l-48.61-48.65l23.42-23.38l48.55,48.61L62.6,200z M22.91,151.35l39.69,39.69l14.49-14.49L37.4,136.88
	C37.4,136.88,22.91,151.35,22.91,151.35z"/>
<path class="st1" d="M31.97,150.43l4.45-4.45l6.31,6.31l-4.45,4.45L31.97,150.43z"/>
<path class="st2" d="M147.73,85.14h-15.78c0-12.19,9.88-22.07,22.07-22.07h15.78C169.8,75.25,159.92,85.14,147.73,85.14z"/>
<path class="st1" d="M147.73,88.3h-18.93v-3.16c0.02-13.93,11.29-25.21,25.21-25.21h18.93v3.14
	C172.95,76.99,161.66,88.28,147.73,88.3z M135.37,81.99h12.34c9.24,0,17.13-6.66,18.69-15.78h-12.34
	C144.82,66.21,136.93,72.87,135.37,81.99z"/>
<path class="st3" d="M100.43,88.3h9.45c0-8.71-7.05-15.76-15.76-15.76h-9.47C84.65,81.23,91.72,88.3,100.43,88.3z"/>
<path class="st1" d="M113.05,91.45h-12.62c-10.41,0-18.87-8.44-18.93-18.85v-3.22h12.62c10.41,0,18.87,8.44,18.93,18.85
	L113.05,91.45L113.05,91.45z M88.2,75.66c1.45,5.57,6.46,9.45,12.23,9.47h5.92c-1.45-5.57-6.46-9.45-12.23-9.47
	C94.12,75.66,88.2,75.66,88.2,75.66z M106.74,44.14H94.12v-6.31h12.62v-3.09h-6.31c-3.48,0-6.31-2.83-6.31-6.31v-3.22
	c0-3.48,2.83-6.31,6.31-6.31h12.62v6.31h-12.62v3.16h6.31c1.68,0,3.3,0.66,4.47,1.88c1.19,1.19,1.84,2.81,1.84,4.49v3.14
	C113.01,41.35,110.2,44.14,106.74,44.14L106.74,44.14z"/>
<path class="st1" d="M100.43,12.62h6.31v9.45h-6.31V12.62z M100.43,41h6.31v9.47h-6.31V41z"/>
</svg>
