<?xml version="1.0" encoding="utf-8"?>
<!-- Generator: Adobe Illustrator 23.0.0, SVG Export Plug-In . SVG Version: 6.00 Build 0)  -->
<!DOCTYPE svg PUBLIC "-//W3C//DTD SVG 1.1//EN" "http://www.w3.org/Graphics/SVG/1.1/DTD/svg11.dtd" [
	<!ENTITY ns_extend "http://ns.adobe.com/Extensibility/1.0/">
	<!ENTITY ns_ai "http://ns.adobe.com/AdobeIllustrator/10.0/">
	<!ENTITY ns_graphs "http://ns.adobe.com/Graphs/1.0/">
	<!ENTITY ns_vars "http://ns.adobe.com/Variables/1.0/">
	<!ENTITY ns_imrep "http://ns.adobe.com/ImageReplacement/1.0/">
	<!ENTITY ns_sfw "http://ns.adobe.com/SaveForWeb/1.0/">
	<!ENTITY ns_custom "http://ns.adobe.com/GenericCustomNamespace/1.0/">
	<!ENTITY ns_adobe_xpath "http://ns.adobe.com/XPath/1.0/">
]>
<svg version="1.1" id="图层_1" xmlns:x="&ns_extend;" xmlns:i="&ns_ai;" xmlns:graph="&ns_graphs;"
	 xmlns="http://www.w3.org/2000/svg" xmlns:xlink="http://www.w3.org/1999/xlink" x="0px" y="0px" viewBox="0 0 200 200"
	 style="enable-background:new 0 0 200 200;" xml:space="preserve">
<style type="text/css">
	.st0{fill:#333303;}
</style>
<metadata>
	<sfw  xmlns="&ns_sfw;">
		<slices></slices>
		<sliceSourceBounds  bottomLeftOrigin="true" height="199.25" width="192.14" x="0.44" y="0.3"></sliceSourceBounds>
	</sfw>
</metadata>
<path class="st0" d="M190.5,187.55l-30.87-30.87c15.88-16.61,25.7-39.05,25.7-63.79c0-50.97-41.47-92.44-92.44-92.44
	S0.44,41.92,0.44,92.89s41.47,92.44,92.44,92.44c21.11,0,40.54-7.2,56.12-19.16l31.43,31.43c2.76,2.78,7.25,2.79,10.03,0.03
	c0.01-0.01,0.02-0.02,0.03-0.03C193.27,194.83,193.28,190.33,190.5,187.55L190.5,187.55z M14.67,92.89
	c0-43.13,35.09-78.22,78.22-78.22s78.22,35.09,78.22,78.22s-35.09,78.22-78.22,78.22S14.67,136.02,14.67,92.89z"/>
<path class="st0" d="M125.29,85.78H100V60.89c0-3.93-3.19-7.11-7.11-7.11c-3.93,0-7.11,3.18-7.11,7.11v24.89H60.89
	c-3.93,0-7.11,3.19-7.11,7.11c0,3.93,3.18,7.11,7.11,7.11h24.89v24.89c0,3.93,3.18,7.11,7.11,7.11c3.93,0,7.11-3.18,7.11-7.11
	c0,0,0,0,0,0V100h25.29c3.93,0,7.11-3.18,7.11-7.11C132.4,88.96,129.22,85.78,125.29,85.78C125.29,85.78,125.29,85.78,125.29,85.78z
	"/>
</svg>
