<?xml version="1.0" encoding="utf-8"?>
<!-- Generator: Adobe Illustrator 23.0.0, SVG Export Plug-In . SVG Version: 6.00 Build 0)  -->
<!DOCTYPE svg PUBLIC "-//W3C//DTD SVG 1.1//EN" "http://www.w3.org/Graphics/SVG/1.1/DTD/svg11.dtd" [
	<!ENTITY ns_extend "http://ns.adobe.com/Extensibility/1.0/">
	<!ENTITY ns_ai "http://ns.adobe.com/AdobeIllustrator/10.0/">
	<!ENTITY ns_graphs "http://ns.adobe.com/Graphs/1.0/">
	<!ENTITY ns_vars "http://ns.adobe.com/Variables/1.0/">
	<!ENTITY ns_imrep "http://ns.adobe.com/ImageReplacement/1.0/">
	<!ENTITY ns_sfw "http://ns.adobe.com/SaveForWeb/1.0/">
	<!ENTITY ns_custom "http://ns.adobe.com/GenericCustomNamespace/1.0/">
	<!ENTITY ns_adobe_xpath "http://ns.adobe.com/XPath/1.0/">
]>
<svg version="1.1" xmlns:x="&ns_extend;" xmlns:i="&ns_ai;" xmlns:graph="&ns_graphs;"
	 xmlns="http://www.w3.org/2000/svg" xmlns:xlink="http://www.w3.org/1999/xlink" x="0px" y="0px" viewBox="0 0 214 90"
	 style="enable-background:new 0 0 214 90;" xml:space="preserve">
<style type="text/css">
	.st0{enable-background:new    ;}
	.st1{fill:#6783E9;}
	.st2{fill:#213683;}
	.st3{fill:#2E4498;}
	.st4{fill:#4860B9;}
</style>
<metadata>
	<sfw  xmlns="&ns_sfw;">
		<slices></slices>
		<sliceSourceBounds  bottomLeftOrigin="true" height="42.01" width="167.01" x="18" y="79.99"></sliceSourceBounds>
	</sfw>
</metadata>
<g id="形状_1_1_" class="st0">
	<g id="形状_1">
		<g>
			<path class="st1" d="M39.01,23.01H26.75c0,0-1.65,0.08-1.75,1.93v12.14c0,0-0.07,1.8,1.75,2.12h7.78V27.63
				C34.53,27.63,34.16,23.54,39.01,23.01z"/>
		</g>
	</g>
</g>
<g id="形状_4_1_" class="st0">
	<g id="形状_4">
		<g>
			<path class="st2" d="M35.12,55.18v-6.17h-7.59c0,0-2.64-0.38-2.53,2.7v8.86l1.17,1.73l3.11,0.58l5.06-2.31l3.11-4.62
				C37.45,55.96,35.44,56.83,35.12,55.18z"/>
		</g>
	</g>
</g>
<g id="形状_2_1_" class="st0">
	<g id="形状_2">
		<g>
			<path class="st3" d="M51.85,42.85c0,0,0.55,0.41,0.58,1.16c0,0,0.04,0.84-0.58,1.16L29.67,61.35c0,0-3.33,1.69-4.67-2.12v3.85
				c0,0,0.06,1.81,1.75,1.93H42.7c0,0,14.53-0.55,18.09-11.95C60.8,53.07,63.02,46.09,51.85,42.85z"/>
		</g>
	</g>
</g>
<g id="形状_3_1_" class="st0">
	<g id="形状_3">
		<g>
			<path class="st4" d="M62.35,37.46c0,0-2.69-11.63-16.93-14.45h-7.59c0,0-3.52-0.25-3.5,4.43l0.19,5.78c0,0,0.54-2.43,3.11-0.77
				l14.59,10.79l6.03,4.43c0,0,4.67,3.69,0.78,9.25C59.05,56.92,66.24,48.54,62.35,37.46z"/>
		</g>
	</g>
</g>
<g id="D-BOOK_1_" class="st0">
	<path class="st1" d="M76.81,35.85v19.96h7.73c6.04,0,9.9-2.27,9.9-9.98c0-8.31-3.86-9.98-9.9-9.98H76.81z M82.59,50.92v-10.3h1.6
		c3.25,0,4.24,1.04,4.24,5.21c0,4-0.87,5.09-4.24,5.09H82.59z"/>
	<rect x="97.72" y="44.85" class="st1" width="9.18" height="4.26"/>
	<path d="M110.62,55.81h8.16c6.3,0,8.02-2.22,8.02-5.81c0-2.65-1.37-3.94-3.46-4.6v-0.12c2.21-0.6,2.93-1.93,2.93-4
		c0-3.6-1.77-5.44-8.13-5.44h-7.52V55.81z M116.4,43.7v-3.37h1.07c2.18,0,3.05,0.23,3.05,1.64c0,1.5-0.87,1.73-3.05,1.73H116.4z
		 M116.4,51.29v-3.62h1.51c2.38,0,3.05,0.49,3.05,1.87c0,1.41-0.7,1.75-3.05,1.75H116.4z"/>
	<path d="M139.02,56.1c6.01,0,9.5-2.04,9.5-10.27c0-8.2-3.49-10.27-9.5-10.27c-5.98,0-9.5,2.07-9.5,10.27
		C129.53,54.06,133.04,56.1,139.02,56.1z M139.02,51.38c-2.76,0-3.4-1.27-3.4-5.55c0-4.34,0.64-5.64,3.4-5.64
		c2.76,0,3.43,1.29,3.43,5.64C142.45,50.11,141.78,51.38,139.02,51.38z"/>
	<path d="M160.81,56.1c6.01,0,9.5-2.04,9.5-10.27c0-8.2-3.49-10.27-9.5-10.27c-5.98,0-9.5,2.07-9.5,10.27
		C151.31,54.06,154.83,56.1,160.81,56.1z M160.81,51.38c-2.76,0-3.4-1.27-3.4-5.55c0-4.34,0.64-5.64,3.4-5.64s3.43,1.29,3.43,5.64
		C164.24,50.11,163.57,51.38,160.81,51.38z"/>
	<polygon points="185.04,45.08 191.72,35.85 185.07,35.85 180.19,43.04 179.4,43.04 179.4,35.85 173.62,35.85 173.62,55.81 
		179.4,55.81 179.4,47.53 180.19,47.53 185.12,55.81 192.01,55.81 	"/>
</g>
</svg>
