<?xml version="1.0" encoding="utf-8"?>
<!-- Generator: Adobe Illustrator 23.0.0, SVG Export Plug-In . SVG Version: 6.00 Build 0)  -->
<!DOCTYPE svg PUBLIC "-//W3C//DTD SVG 1.1//EN" "http://www.w3.org/Graphics/SVG/1.1/DTD/svg11.dtd" [
	<!ENTITY ns_extend "http://ns.adobe.com/Extensibility/1.0/">
	<!ENTITY ns_ai "http://ns.adobe.com/AdobeIllustrator/10.0/">
	<!ENTITY ns_graphs "http://ns.adobe.com/Graphs/1.0/">
	<!ENTITY ns_vars "http://ns.adobe.com/Variables/1.0/">
	<!ENTITY ns_imrep "http://ns.adobe.com/ImageReplacement/1.0/">
	<!ENTITY ns_sfw "http://ns.adobe.com/SaveForWeb/1.0/">
	<!ENTITY ns_custom "http://ns.adobe.com/GenericCustomNamespace/1.0/">
	<!ENTITY ns_adobe_xpath "http://ns.adobe.com/XPath/1.0/">
]>
<svg version="1.1" id="图层_1" xmlns:x="&ns_extend;" xmlns:i="&ns_ai;" xmlns:graph="&ns_graphs;"
	 xmlns="http://www.w3.org/2000/svg" xmlns:xlink="http://www.w3.org/1999/xlink" x="0px" y="0px" viewBox="0 0 200 200"
	 style="enable-background:new 0 0 200 200;" xml:space="preserve">
<style type="text/css">
	.st0{fill:#E9EAEB;}
	.st1{fill:#BCC0C4;}
	.st2{fill:#FFFFFF;}
	.st3{fill:#2A5082;}
	.st4{fill:#A3D4FF;}
</style>
<metadata>
	<sfw  xmlns="&ns_sfw;">
		<slices></slices>
		<sliceSourceBounds  bottomLeftOrigin="true" height="199.7" width="190.21" x="4.82" y="0.23"></sliceSourceBounds>
	</sfw>
</metadata>
<path class="st0" d="M31.02,93.36c0,38.87,31.52,70.39,70.39,70.39s70.39-31.52,70.39-70.39s-31.5-70.39-70.39-70.39
	S31.02,54.49,31.02,93.36z"/>
<path class="st1" d="M56.29,18.96l-3.34-5.62c29.88-17.7,67.03-17.7,96.91,0l-3.34,5.63C118.69,2.5,84.1,2.5,56.29,18.96
	L56.29,18.96z M77.68,25L84,23.3l2.56,9.55l-6.33,1.7L77.68,25z M45.88,45.78l4.63-4.63l6.99,6.99l-4.63,4.63
	C52.87,52.77,45.88,45.78,45.88,45.78z M28.73,79.71l1.7-6.33l9.55,2.56l-1.7,6.33C38.28,82.27,28.73,79.71,28.73,79.71z
	 M29.14,111.31l9.55-2.56l1.7,6.33l-9.55,2.56L29.14,111.31z M47.01,144.8l6.99-6.99l4.63,4.63l-6.99,6.99
	C51.64,149.43,47.01,144.8,47.01,144.8z M143.67,141.31l4.63-4.63l6.99,6.99l-4.63,4.63L143.67,141.31z M161.19,113.54l1.7-6.33
	l9.55,2.56l-1.7,6.33L161.19,113.54z M160.76,74.37l9.55-2.56l1.7,6.33l-9.55,2.56L160.76,74.37z M142.52,47.01l6.99-6.99l4.63,4.63
	l-6.99,6.99C147.15,51.64,142.52,47.01,142.52,47.01z M113.05,32.44l2.56-9.55l6.33,1.7l-2.56,9.55L113.05,32.44z M147.11,177.38
	l-3.26-5.74c27.25-15.66,44.2-44.53,44.65-75.96l6.54,0.08C194.59,129.51,176.39,160.53,147.11,177.38L147.11,177.38z M52.77,177.38
	C23.54,160.55,5.31,129.55,4.82,95.82l6.54-0.08c0.43,31.43,17.4,60.29,44.65,75.96L52.77,177.38L52.77,177.38z"/>
<path class="st2" d="M103.67,45.94c-19.57-0.98-37.73,10.2-45.7,28.11c-7.95,17.91-4.06,38.89,9.79,52.75
	c5.72,5.59,9,13.24,9.08,21.25v5.88h49.08v-5.88c-0.04-7.81,3.07-15.33,8.61-20.84c9.14-8.85,14.32-21.04,14.38-33.75
	C148.77,68.14,128.95,47.32,103.67,45.94L103.67,45.94z"/>
<path class="st3" d="M129.24,153.93h-6.54v-5.88c-0.02-8.69,3.46-17.03,9.65-23.16c8.5-8.24,13.28-19.59,13.28-31.43
	c-0.2-23.54-18.61-42.91-42.11-44.24c-18.2-0.88-35.1,9.53-42.5,26.19s-3.79,36.17,9.08,49.08c6.36,6.2,9.98,14.69,10.06,23.57v5.88
	h-6.58v-5.9c-0.08-7.15-2.99-13.96-8.13-18.95c-14.77-14.82-18.91-37.23-10.43-56.35c8.5-19.14,27.87-31.09,48.77-30.08
	c27.01,1.52,48.16,23.75,48.36,50.78c0.02,13.59-5.49,26.62-15.23,36.09c-4.92,4.88-7.7,11.54-7.68,18.5V153.93z"/>
<path class="st4" d="M94.1,124.94c-10.94-3.85-16.17-16.84-14.36-23.77c5.02-18.55,23.71-20.35,31.84-33.85
	c11.93,8.3,19.57,24.8,13.98,40.21c-3.77,10.35-17.42,14.38-22.99,15.51"/>
<path class="st3" d="M93.01,128.03c-12.07-4.32-18.83-18.67-16.39-27.71c3.2-11.93,11.64-17.7,19.08-22.79
	c5.16-3.54,10.06-6.86,13.09-11.91l1.82-2.99l2.87,1.99c12.38,8.63,21.54,26.48,15.18,43.98c-4.53,12.36-20.55,16.58-25.33,17.6
	l-1.33-6.41c2.87-0.59,17.07-4,20.53-13.44c4.8-13.16-1.23-26.64-10.18-34.36c-3.63,4.59-8.34,7.79-12.93,10.94
	c-7.19,4.88-13.89,9.49-16.46,19.08c-1.45,5.59,3.09,16.62,12.25,19.84L93.01,128.03L93.01,128.03z"/>
<path class="st3" d="M93.55,141.93c-7.27-20.59,1.45-37.13,8.44-50.43c1.21-2.34,2.38-4.51,3.42-6.66l5.9,2.87
	c-1.09,2.25-2.27,4.47-3.52,6.86c-6.74,12.79-14.38,27.29-8.07,45.2L93.55,141.93z M72.77,79.94l-6.04-2.64
	c4.71-10.76,14.36-18.55,25.86-20.88l1.31,6.43C84.51,64.77,76.62,71.15,72.77,79.94z M70.31,91.72h-6.54
	c0-2.42,0.23-4.82,0.72-7.19l6.43,1.31C70.51,87.77,70.31,89.75,70.31,91.72z M107.68,199.77H95.14l-6.54-6.54h-5.2v-6.54h7.91
	l6.54,6.54h7.11l6.54-6.54h7.91v6.54h-5.18L107.68,199.77L107.68,199.77z M73.59,160.47h55.64v6.54H73.59V160.47z M73.59,173.57
	h55.64v6.54H73.59V173.57z"/>
</svg>
