<?xml version="1.0" encoding="utf-8"?>
<!-- Generator: Adobe Illustrator 23.0.0, SVG Export Plug-In . SVG Version: 6.00 Build 0)  -->
<!DOCTYPE svg PUBLIC "-//W3C//DTD SVG 1.1//EN" "http://www.w3.org/Graphics/SVG/1.1/DTD/svg11.dtd" [
	<!ENTITY ns_extend "http://ns.adobe.com/Extensibility/1.0/">
	<!ENTITY ns_ai "http://ns.adobe.com/AdobeIllustrator/10.0/">
	<!ENTITY ns_graphs "http://ns.adobe.com/Graphs/1.0/">
	<!ENTITY ns_vars "http://ns.adobe.com/Variables/1.0/">
	<!ENTITY ns_imrep "http://ns.adobe.com/ImageReplacement/1.0/">
	<!ENTITY ns_sfw "http://ns.adobe.com/SaveForWeb/1.0/">
	<!ENTITY ns_custom "http://ns.adobe.com/GenericCustomNamespace/1.0/">
	<!ENTITY ns_adobe_xpath "http://ns.adobe.com/XPath/1.0/">
]>
<svg version="1.1" id="图层_1" xmlns:x="&ns_extend;" xmlns:i="&ns_ai;" xmlns:graph="&ns_graphs;"
	 xmlns="http://www.w3.org/2000/svg" xmlns:xlink="http://www.w3.org/1999/xlink" x="0px" y="0px" viewBox="0 0 200 200"
	 style="enable-background:new 0 0 200 200;" xml:space="preserve">
<style type="text/css">
	.st0{fill:#6783E9;}
</style>
<metadata>
	<sfw  xmlns="&ns_sfw;">
		<slices></slices>
		<sliceSourceBounds  bottomLeftOrigin="true" height="174.88" width="130.41" x="34.83" y="12.5"></sliceSourceBounds>
	</sfw>
</metadata>
<path d="M49.52,64.45c1.03,0.68,2.19,1,3.34,1c1.98,0,3.93-0.97,5.1-2.75c1.85-2.81,1.07-6.59-1.74-8.45c-2.95-1.94-6.14-4.62-7.2-6
	l0-20.76c0-1.47,1.2-2.67,2.67-2.67h23.94v20.82c0,3.37,2.73,6.1,6.1,6.1s6.1-2.73,6.1-6.1l0-20.82h24.4v20.82
	c0,3.37,2.73,6.1,6.1,6.1c3.37,0,6.1-2.73,6.1-6.1V24.82h23.95c1.47,0,2.66,1.2,2.66,2.67v21.19c-0.8,1.26-3.9,3.71-6.7,5.24
	c-2.96,1.61-4.05,5.32-2.43,8.28c1.61,2.96,5.32,4.05,8.28,2.43c3.92-2.14,13.06-7.93,13.06-15.43l0-21.72
	c0-8.2-6.67-14.87-14.86-14.87H51.69c-8.2,0-14.87,6.67-14.87,14.87v21.72C36.82,53.79,41.09,58.91,49.52,64.45z"/>
<path class="st0" d="M100.03,57.1c-35.95,0-65.2,29.25-65.2,65.2s29.25,65.2,65.2,65.2s65.2-29.25,65.2-65.2
	S135.99,57.1,100.03,57.1z M100.03,175.3c-29.22,0-53-23.78-53-53s23.78-53,53-53s53,23.78,53,53S129.26,175.3,100.03,175.3z"/>
<path class="st0" d="M76.23,99.32c-3.37,0-6.1,2.73-6.1,6.1v5.95c0,3.37,2.73,6.1,6.1,6.1c3.37,0,6.1-2.73,6.1-6.1v-5.95
	C82.33,102.05,79.6,99.32,76.23,99.32z"/>
<path class="st0" d="M123.84,99.32c-3.37,0-6.1,2.73-6.1,6.1v5.95c0,3.37,2.73,6.1,6.1,6.1c3.37,0,6.1-2.73,6.1-6.1v-5.95
	C129.94,102.05,127.21,99.32,123.84,99.32z"/>
<path class="st0" d="M115.03,126.87c-2.84-1.82-6.61-0.99-8.43,1.85c-0.02,0.04-2.61,3.8-6.63,3.8c-3.91,0-6.33-3.54-6.5-3.78
	c-1.79-2.82-5.52-3.68-8.37-1.91c-2.86,1.78-3.74,5.54-1.96,8.4c2.19,3.52,8.2,9.49,16.83,9.49c8.59,0,14.67-5.92,16.91-9.42
	C118.7,132.46,117.87,128.69,115.03,126.87z"/>
</svg>
