<?xml version="1.0" encoding="utf-8"?>
<!-- Generator: Adobe Illustrator 23.0.0, SVG Export Plug-In . SVG Version: 6.00 Build 0)  -->
<!DOCTYPE svg PUBLIC "-//W3C//DTD SVG 1.1//EN" "http://www.w3.org/Graphics/SVG/1.1/DTD/svg11.dtd" [
	<!ENTITY ns_extend "http://ns.adobe.com/Extensibility/1.0/">
	<!ENTITY ns_ai "http://ns.adobe.com/AdobeIllustrator/10.0/">
	<!ENTITY ns_graphs "http://ns.adobe.com/Graphs/1.0/">
	<!ENTITY ns_vars "http://ns.adobe.com/Variables/1.0/">
	<!ENTITY ns_imrep "http://ns.adobe.com/ImageReplacement/1.0/">
	<!ENTITY ns_sfw "http://ns.adobe.com/SaveForWeb/1.0/">
	<!ENTITY ns_custom "http://ns.adobe.com/GenericCustomNamespace/1.0/">
	<!ENTITY ns_adobe_xpath "http://ns.adobe.com/XPath/1.0/">
]>
<svg version="1.1" id="图层_1" xmlns:x="&ns_extend;" xmlns:i="&ns_ai;" xmlns:graph="&ns_graphs;"
	 xmlns="http://www.w3.org/2000/svg" xmlns:xlink="http://www.w3.org/1999/xlink" x="0px" y="0px" viewBox="0 0 200 200"
	 style="enable-background:new 0 0 200 200;" xml:space="preserve">
<style type="text/css">
	.st0{fill:#6783E9;}
</style>
<metadata>
	<sfw  xmlns="&ns_sfw;">
		<slices></slices>
		<sliceSourceBounds  bottomLeftOrigin="true" height="200" width="200" x="0" y="0"></sliceSourceBounds>
	</sfw>
</metadata>
<path class="st0" d="M100,0c55.23,0,100,44.77,100,100s-44.77,100-100,100S0,155.23,0,100S44.77,0,100,0z M164.6,155.3l-27.45-27.75
	c19.55-25.86,14.44-62.67-11.41-82.23c-9.96-7.53-22.05-11.69-34.54-11.87c-32.32,0.94-57.76,27.91-56.81,60.24
	c0.91,30.99,25.82,55.91,56.81,56.81c13.15,0,25.89-4.52,36.1-12.8l27.35,27.7c2.74,2.76,7.21,2.77,9.97,0.03
	c0.01-0.01,0.02-0.02,0.03-0.03c2.69-2.79,2.69-7.21,0-10L164.6,155.3z M60.25,123.3c-17.06-17.4-17.06-45.25,0-62.65
	c16.84-17.09,44.35-17.3,61.45-0.45c0.15,0.15,0.3,0.3,0.45,0.45c17.06,17.4,17.06,45.25,0,62.65
	c-16.84,17.09-44.35,17.3-61.45,0.45C60.55,123.6,60.4,123.45,60.25,123.3z"/>
</svg>
