<?xml version="1.0" encoding="utf-8"?>
<!-- Generator: Adobe Illustrator 23.0.0, SVG Export Plug-In . SVG Version: 6.00 Build 0)  -->
<!DOCTYPE svg PUBLIC "-//W3C//DTD SVG 1.1//EN" "http://www.w3.org/Graphics/SVG/1.1/DTD/svg11.dtd" [
	<!ENTITY ns_extend "http://ns.adobe.com/Extensibility/1.0/">
	<!ENTITY ns_ai "http://ns.adobe.com/AdobeIllustrator/10.0/">
	<!ENTITY ns_graphs "http://ns.adobe.com/Graphs/1.0/">
	<!ENTITY ns_vars "http://ns.adobe.com/Variables/1.0/">
	<!ENTITY ns_imrep "http://ns.adobe.com/ImageReplacement/1.0/">
	<!ENTITY ns_sfw "http://ns.adobe.com/SaveForWeb/1.0/">
	<!ENTITY ns_custom "http://ns.adobe.com/GenericCustomNamespace/1.0/">
	<!ENTITY ns_adobe_xpath "http://ns.adobe.com/XPath/1.0/">
]>
<svg version="1.1" id="图层_1" xmlns:x="&ns_extend;" xmlns:i="&ns_ai;" xmlns:graph="&ns_graphs;"
	 xmlns="http://www.w3.org/2000/svg" xmlns:xlink="http://www.w3.org/1999/xlink" x="0px" y="0px" viewBox="0 0 200 200"
	 style="enable-background:new 0 0 200 200;" xml:space="preserve">
<style type="text/css">
	.st0{fill:#FFFFFF;}
	.st1{fill:#2A5082;}
	.st2{fill:#E9EAEB;}
	.st3{fill:#A3D4FF;}
	.st4{fill:#BCC0C4;}
</style>
<metadata>
	<sfw  xmlns="&ns_sfw;">
		<slices></slices>
		<sliceSourceBounds  bottomLeftOrigin="true" height="198.36" width="199.9" x="0" y="0.84"></sliceSourceBounds>
	</sfw>
</metadata>
<path class="st0" d="M153.89,128.05l-44.39-44.53h-35L49.02,58.05l-34.98,35l15.9,15.9c1.66,4.65,4.57,8.77,8.42,11.86l43.11,43.63
	l5.39,5.39c8.22,8.22,15.9,2.17,19.84-4.65c7.52,3.89,15.94-0.41,18.93-6.27c9.53,4.71,17.87-5.04,17.19-10.02
	C153.16,148.28,160.9,137.5,153.89,128.05L153.89,128.05z"/>
<path class="st1" d="M95.08,176.91c-2.81,0-6.54-1-10.45-4.9l-5.39-5.39l-42.93-43.52c-4.12-3.34-7.29-7.7-9.18-12.64L9.53,93.03
	l39.49-39.49L75.8,80.29h35l45.57,45.82c3.61,4.49,4.36,10.64,1.95,15.9c-2.44,4.98-7.05,8.55-12.5,9.65
	c-1.02,3.54-3.2,6.62-6.23,8.71c-3.61,2.71-8.28,3.61-12.64,2.4c-2.27,2.91-5.37,5.08-8.89,6.21c-3.28,1.07-6.8,1.11-10.1,0.1
	c-3.22,4.43-7.23,7.21-11.37,7.81C96.11,176.95,95.61,176.95,95.08,176.91L95.08,176.91z M18.54,93.05l14.24,14.24l0.23,0.78
	c1.45,3.96,3.93,7.46,7.19,10.16l0.43,0.37l43.11,43.63l5.37,5.37c2.27,2.27,4.51,3.26,6.64,2.99c2.81-0.37,5.9-2.97,8.2-7.01
	l1.52-2.62l2.7,1.41c2.46,1.27,5.31,1.48,7.93,0.61c2.85-0.9,5.25-2.87,6.72-5.49l1.41-2.81l2.81,1.41
	c2.83,1.46,6.25,1.15,8.75-0.82c2.81-2.03,4-4.9,3.87-5.92l-0.47-3.42l3.44-0.2c4.18-0.2,7.95-2.64,9.82-6.37
	c1.39-3.05,0.94-6.62-1.15-9.22l-43.12-43.46H73.18L49.02,62.54L18.54,93.05z"/>
<path class="st2" d="M147.68,61.23c0,0-12.95,12.27-15.9,12.73c-3.85,0.59-21.05-7.5-24.57-8.42S68.96,75.76,66.37,79.94
	c-2.58,4.18,7.68,14.04,17.58,12.81s24.57-6.5,28.85-2.23c6.93,6.93,27.17,28.16,36.74,36.6c8.01,7.01,21.68-17.19,25.14-21.05
	c0,0,6.37-4.61,10.84-7.91L147.68,61.23z"/>
<path class="st1" d="M152.77,131.6c-1.99,0-3.91-0.74-5.37-2.07c-7.15-6.31-19.84-19.34-29.12-28.83c-3.22-3.3-5.94-6.09-7.75-7.91
	c-1.82-1.82-11.02,0.16-16.52,1.33c-3.28,0.7-6.68,1.41-9.67,1.82c-7.99,1.04-16.37-3.98-19.86-9.41c-2.62-4.06-1.64-6.91-0.82-8.24
	c0.61-0.98,2.42-3.93,21.78-10.41c5.61-1.89,19.12-6.21,22.52-5.37c2.56,0.8,5.08,1.74,7.56,2.81c4.38,1.78,13.34,5.43,15.68,5.47
	c1.93-0.84,8.85-6.76,14.3-11.89l2.23-2.11l42.68,41.78l-3.05,2.23c-3.91,2.81-9.26,6.74-10.55,7.7c-0.61,0.72-1.62,2.21-2.71,3.77
	c-6.46,9.3-13.38,18.46-20.29,19.3C153.46,131.58,153.11,131.6,152.77,131.6L152.77,131.6z M107.01,85.68
	c3.32,0,6.11,0.68,8.01,2.58c1.89,1.88,4.57,4.65,7.81,7.95c9.2,9.43,21.82,22.36,28.77,28.52c0.37,0.37,0.88,0.55,1.41,0.47
	c4.67-0.57,12.5-11.8,15.84-16.6c1.05-1.6,2.19-3.14,3.42-4.63l0.49-0.43l7.81-5.61l-32.97-32.3c-7.81,7.25-12.99,11.09-15.45,11.46
	c-2.93,0.47-8.26-1.41-19.14-5.86c-2.68-1.09-5.45-2.23-6.52-2.52c-4.67,0-33.5,9.45-37.42,12.87c0.43,1.35,1.23,2.54,2.32,3.44
	c2.81,2.7,7.6,5.16,12.07,4.57c2.71-0.35,5.84-1.02,9.14-1.72C97.3,86.66,102.15,85.94,107.01,85.68L107.01,85.68z M89.73,152.66
	l4.49-4.49L109,162.95l-4.49,4.49L89.73,152.66z M101.84,139.57l4.49-4.49l21.6,21.6l-4.49,4.49L101.84,139.57z M115.27,125.8
	l4.49-4.49l25.35,25.35l-4.49,4.49L115.27,125.8z"/>
<path class="st3" d="M134.94,64.41l15.92-15.92l44.55,44.55l-15.92,15.92C179.49,108.96,134.94,64.41,134.94,64.41z"/>
<path class="st1" d="M179.47,113.46l-49.02-49.04L150.86,44l49.04,49.04L179.47,113.46z M139.43,64.41l40.04,40.04l11.41-11.41
	l-40.06-40.04L139.43,64.41L139.43,64.41z"/>
<path class="st1" d="M148.59,66.66l4.49-4.49l6.37,6.37l-4.49,4.49L148.59,66.66z"/>
<path class="st3" d="M4.49,93.05L49.04,48.5l15.92,15.92l-44.55,44.55C20.41,108.96,4.49,93.05,4.49,93.05z"/>
<path class="st1" d="M20.39,113.46L0,93.05L49.04,44l20.41,20.41C69.45,64.41,20.39,113.46,20.39,113.46z M8.98,93.05l11.41,11.41
	l40.04-40.04L49.02,53.01L8.98,93.05z"/>
<path class="st1" d="M40.43,68.54l6.37-6.37l4.49,4.49l-6.37,6.37L40.43,68.54z"/>
<path class="st4" d="M76.68,199.14C37.99,190.18,8.2,159.3,0.64,120.31l6.25-1.21c7.09,36.5,34.98,65.45,71.21,73.85L76.68,199.14
	L76.68,199.14z M121.91,199.16l-1.41-6.21c35.14-7.97,62.56-35.41,70.53-70.53l6.21,1.41C188.73,161.35,159.43,190.66,121.91,199.16
	L121.91,199.16z M30.49,37.11l-4.65-4.36C44.84,12.38,71.46,0.8,99.32,0.8s54.47,11.56,73.48,31.93l-4.67,4.34
	C150.35,17.99,125.41,7.13,99.32,7.13C73.2,7.13,48.28,17.99,30.49,37.11z"/>
<path class="st2" d="M63.46,165.57c1.19,1.19,2.81,1.88,4.49,1.88s3.3-0.66,4.49-1.88l6.76-6.76c2.68-2.68,1.97-7.01-1.13-10.12
	c-3.11-3.11-7.46-3.79-10.12-1.13c2.68-2.68,1.97-7.01-1.13-10.12c-3.11-3.11-7.46-3.79-10.12-1.11c2.68-2.68,1.97-7.01-1.11-10.12
	c-3.11-3.11-7.46-3.79-10.12-1.11c2.68-2.68,1.97-7.01-1.13-10.12c-3.11-3.11-7.46-3.79-10.12-1.13l-6.76,6.76
	c-1.19,1.19-1.88,2.81-1.88,4.49c0,1.68,0.66,3.3,1.88,4.49L63.46,165.57L63.46,165.57z"/>
<path class="st1" d="M67.95,170.61c-2.54,0-4.96-1.02-6.76-2.81l-36-35.98c-3.73-3.73-3.73-9.77,0-13.5l6.76-6.76
	c3.85-3.85,10.14-3.36,14.63,1.13c2.09,1.99,3.4,4.67,3.69,7.56c5.88,0.72,10.49,5.35,11.23,11.23c5.88,0.72,10.49,5.35,11.23,11.23
	h0.47c2.68,0.41,5.14,1.68,7.01,3.63c4.49,4.49,4.96,10.78,1.13,14.63l-6.76,6.76C72.85,169.51,70.47,170.57,67.95,170.61
	L67.95,170.61z M38.26,115.35c-0.68-0.02-1.33,0.23-1.82,0.72l-6.74,6.74c-1.25,1.25-1.25,3.26,0,4.51l36,36
	c1.25,1.21,3.24,1.21,4.51,0l6.76-6.76c1.41-1.41,0.51-3.98-1.13-5.61c-0.9-0.96-2.07-1.6-3.36-1.82c-0.82-0.14-1.66,0.12-2.25,0.68
	l-4.51-4.51c1.41-1.41,0.53-3.98-1.13-5.61c-1.64-1.62-4.22-2.58-5.61-1.13l-4.51-4.51c1.41-1.41,0.51-3.98-1.13-5.61
	c-1.62-1.62-4.22-2.58-5.61-1.13l-4.51-4.51c0.59-0.59,0.84-1.43,0.68-2.25c-0.23-1.29-0.86-2.46-1.82-3.36
	C41.11,116.13,39.75,115.47,38.26,115.35L38.26,115.35z M72.25,47.58l4.49-4.49l6.37,6.37l-4.49,4.49L72.25,47.58z M87.36,36.78
	l6.04-2.01l3.18,9.55l-6.04,2.01C90.55,46.33,87.36,36.78,87.36,36.78z M103.28,44.32l3.18-9.55l6.04,2.01l-3.18,9.55
	C109.32,46.33,103.28,44.32,103.28,44.32z M116.78,49.43l6.37-6.37l4.49,4.49l-6.37,6.37C121.27,53.93,116.78,49.43,116.78,49.43z"
	/>
</svg>
