<?xml version="1.0" encoding="utf-8"?>
<!-- Generator: Adobe Illustrator 23.0.0, SVG Export Plug-In . SVG Version: 6.00 Build 0)  -->
<!DOCTYPE svg PUBLIC "-//W3C//DTD SVG 1.1//EN" "http://www.w3.org/Graphics/SVG/1.1/DTD/svg11.dtd" [
	<!ENTITY ns_extend "http://ns.adobe.com/Extensibility/1.0/">
	<!ENTITY ns_ai "http://ns.adobe.com/AdobeIllustrator/10.0/">
	<!ENTITY ns_graphs "http://ns.adobe.com/Graphs/1.0/">
	<!ENTITY ns_vars "http://ns.adobe.com/Variables/1.0/">
	<!ENTITY ns_imrep "http://ns.adobe.com/ImageReplacement/1.0/">
	<!ENTITY ns_sfw "http://ns.adobe.com/SaveForWeb/1.0/">
	<!ENTITY ns_custom "http://ns.adobe.com/GenericCustomNamespace/1.0/">
	<!ENTITY ns_adobe_xpath "http://ns.adobe.com/XPath/1.0/">
]>
<svg version="1.1" id="图层_1" xmlns:x="&ns_extend;" xmlns:i="&ns_ai;" xmlns:graph="&ns_graphs;"
	 xmlns="http://www.w3.org/2000/svg" xmlns:xlink="http://www.w3.org/1999/xlink" x="0px" y="0px" viewBox="0 0 200 200"
	 style="enable-background:new 0 0 200 200;" xml:space="preserve">
<style type="text/css">
	.st0{fill:#FFFFFF;}
</style>
<metadata>
	<sfw  xmlns="&ns_sfw;">
		<slices></slices>
		<sliceSourceBounds  bottomLeftOrigin="true" height="175.39" width="175.37" x="12.23" y="12.34"></sliceSourceBounds>
	</sfw>
</metadata>
<path d="M180.73,65.94C161.94,21.31,110.53,0.37,65.9,19.16S0.33,89.36,19.12,133.98s70.2,65.57,114.82,46.78
	c32.51-13.69,53.65-45.53,53.65-80.8C187.61,88.27,185.28,76.7,180.73,65.94z"/>
<path class="st0" d="M90.88,129.96h-0.51c-4.32-0.15-8.39-2.08-11.24-5.33l-19.14-21.05c-2.03-2.24-1.87-5.69,0.37-7.72
	c2.24-2.03,5.69-1.87,7.72,0.37l19.22,21.13l0.04,0.05c1.69,1.95,4.63,2.16,6.57,0.47c0.09-0.08,0.18-0.16,0.26-0.25l0.02-0.02
	l45.9-46.08c2.13-2.14,5.59-2.15,7.73-0.02c0,0,0,0,0,0c2.14,2.13,2.15,5.59,0.02,7.73c0,0,0,0,0,0l-45.88,46.07
	C99.04,128.29,95.04,129.95,90.88,129.96L90.88,129.96z"/>
</svg>
