<?xml version="1.0" standalone="no"?><!DOCTYPE svg PUBLIC "-//W3C//DTD SVG 1.1//EN" "http://www.w3.org/Graphics/SVG/1.1/DTD/svg11.dtd"><svg t="1646098572489" class="icon" viewBox="0 0 1024 1024" version="1.1" xmlns="http://www.w3.org/2000/svg" p-id="6836" xmlns:xlink="http://www.w3.org/1999/xlink" width="200" height="200"><defs><style type="text/css"></style></defs><path d="M882.121 362.964c13.703 0 25.32 4.32 34.855 12.959 9.531 8.638 14.299 19.213 14.299 31.723v263.63c0 11.915-4.767 22.193-14.299 30.832-9.533 8.636-21.152 12.956-34.855 12.956h-16.085c-13.703 0-25.32-4.32-34.853-12.956-9.531-8.638-14.299-18.917-14.299-30.832v-263.63c0-12.51 4.767-23.087 14.299-31.723 9.531-8.639 21.15-12.96 34.853-12.96h16.085z m-724.756 0c13.703 0 25.022 4.32 33.959 12.959 8.937 8.638 13.406 19.213 13.406 31.723v263.63c0 11.915-4.468 22.193-13.406 30.832-8.937 8.636-20.256 12.956-33.96 12.956H141.28c-13.703 0-25.32-4.32-34.853-12.956-9.532-8.638-14.298-18.917-14.298-30.832v-263.63c0-12.51 4.766-23.087 14.298-31.723 9.533-8.639 21.15-12.96 34.853-12.96h16.086z m493.3-207.33c10.724 4.767 21.894 11.32 33.513 19.661 11.616 8.34 22.787 18.171 33.511 29.491a213.407 213.407 0 0 1 28.151 37.088c8.042 13.404 13.853 27.554 17.426 42.449h-507.6c9.534-31.577 24.576-57.493 45.13-77.75 20.555-20.257 41.258-36.342 62.11-48.257L317.33 86.822c-1.192-1.19-1.34-3.425-0.447-6.701s4.021-6.702 9.383-10.276c4.767-4.171 9.234-6.107 13.405-5.81 4.17 0.3 6.852 1.043 8.042 2.235l46.471 73.28c16.681-7.744 34.256-13.703 52.725-17.873 18.47-4.17 37.534-6.255 57.194-6.255 40.512 0 78.345 8.34 113.495 25.023l47.361-74.174c1.193-1.192 3.428-1.787 6.706-1.787 3.276 0 8.192 1.787 14.744 5.363 5.957 2.979 9.383 5.659 10.279 8.043 0.891 2.383 0.744 4.17-0.448 5.361l-45.574 72.384zM401.333 232.49c7.744 0 14.299-2.682 19.66-8.043 5.362-5.362 8.044-11.916 8.044-19.66 0-7.745-2.682-14.3-8.043-19.66-5.362-5.364-11.917-8.044-19.661-8.044s-14.298 2.68-19.66 8.043c-5.363 5.361-8.044 11.916-8.044 19.66 0 7.745 2.681 14.3 8.043 19.66 5.363 5.362 11.917 8.044 19.661 8.044z m219.841-3.576c7.744 0 14.299-2.68 19.66-8.043 5.36-5.362 8.043-11.916 8.043-19.66 0-7.745-2.682-14.298-8.042-19.661-5.362-5.361-11.917-8.042-19.661-8.042-7.746 0-14.299 2.68-19.66 8.042-5.363 5.363-8.043 11.916-8.043 19.662 0 7.743 2.68 14.297 8.042 19.66 5.363 5.362 11.915 8.042 19.661 8.042z m142.092 111.708l0.894 402.148c0 13.106-4.32 24.128-12.958 33.065-8.64 8.936-19.214 13.405-31.724 13.405h-12.514v125.113c0 11.915-4.32 22.34-12.957 31.277-8.64 8.937-19.215 13.404-31.725 13.404h-25.916c-11.916 0-22.191-4.466-30.831-13.404-8.638-8.936-12.957-19.363-12.957-31.277V789.239H428.145v125.113c0 11.915-4.322 22.34-12.96 31.277s-19.213 13.404-31.724 13.404h-25.916c-11.916 0-22.194-4.466-30.831-13.404-8.64-8.936-12.96-19.363-12.96-31.277V789.239h-9.83c-12.51 0-23.085-4.468-31.724-13.405-8.638-8.936-12.957-19.959-12.957-33.065V340.622H763.266z" p-id="6837" fill="#6783e9"></path></svg>