<?xml version="1.0" encoding="utf-8"?>
<!-- Generator: Adobe Illustrator 23.0.0, SVG Export Plug-In . SVG Version: 6.00 Build 0)  -->
<svg version="1.1" id="图层_1" xmlns="http://www.w3.org/2000/svg" xmlns:xlink="http://www.w3.org/1999/xlink" x="0px" y="0px"
	 viewBox="0 0 675 200" style="enable-background:new 0 0 675 200;" xml:space="preserve">
<style type="text/css">
	.st0{fill:none;stroke:#FFFFFF;stroke-width:4;stroke-miterlimit:10;}
	.st1{fill:#FFFFFF;}
</style>
<g>
	<path class="st0" d="M651.9,2c11.7,0,21.1,9.6,21.1,21.4V176c0,11.8-9.4,21.4-21.1,21.4H23.2C11.5,197.3,2,187.8,2,176V23.4
		C2,11.6,11.5,2,23.2,2H651.9"/>
	<path class="st1" d="M267.3,161.6h-11.5l-6.3-20.3h-21.9l-6,20.3h-11.1l21.6-69.2h13.4L267.3,161.6z M247.6,132.8l-5.6-18.1
		c-0.6-1.8-1.8-6.2-3.5-13.1h-0.3c-0.6,3-1.8,7.3-3.1,13.1l-5.6,18.1H247.6z M323.1,136c0.4,7.3-2,14.5-6.8,20.2
		c-3.8,4.2-9.3,6.7-14.9,6.6c-5.5,0.5-10.9-2.3-13.8-7.1h-0.3v26.4h-10.8v-53.9c0-5.4-0.1-10.8-0.4-16.5h9.5l0.6,7.9h0.3
		c5.8-9.1,17.6-11.7,26.5-5.8c1.5,1,3,2.3,4.1,3.7C321.3,122.9,323.3,129.5,323.1,136z M312,136.6c0.1-4.2-1-8.5-3.3-12
		c-2.1-3.2-5.6-5-9.4-4.9c-2.6,0-5.3,0.9-7.3,2.7c-2.1,1.8-3.6,4.4-4.3,7.2c-0.3,1.2-0.5,2.2-0.5,3.3v8.4c-0.1,3.3,1.1,6.7,3.3,9.1
		c2.1,2.4,5.3,3.9,8.5,3.7c3.8,0.1,7.3-1.7,9.5-4.8C311,145.4,312.3,141.1,312,136.6L312,136.6z M378.8,136c0.4,7.3-2,14.5-6.6,20.2
		c-3.8,4.2-9.3,6.7-14.9,6.6c-5.5,0.5-10.9-2.3-13.8-7.1h-0.3v26.4h-10.9v-53.9c0-5.4-0.1-10.8-0.4-16.5h9.5l0.6,7.9h0.3
		c5.8-9.1,17.6-11.7,26.5-5.8c1.5,1,3,2.3,4.1,3.7C377.1,122.9,379.2,129.5,378.8,136z M367.8,136.6c0.1-4.2-1-8.5-3.1-12
		c-2.1-3.2-5.6-5-9.4-4.9c-2.6,0-5.3,1-7.3,2.7c-2.1,1.8-3.6,4.4-4.3,7.2c-0.3,1.2-0.4,2.2-0.5,3.3v8.4c-0.1,3.3,1.1,6.7,3.3,9.1
		c2.1,2.4,5.3,3.9,8.5,3.7c3.8,0.1,7.3-1.7,9.5-4.8C366.8,145.4,368.1,141.1,367.8,136.6L367.8,136.6z M441.2,142.2
		c0.3,5.5-2,10.8-6,14.4c-5.1,4.2-11.6,6.4-18.3,6c-6.1,0.3-12.1-1.2-17.5-4.4l2.5-9.3c4.8,3,10.1,4.5,15.6,4.4
		c3.4,0.3,6.8-0.8,9.5-2.8c2.3-1.8,3.5-4.6,3.4-7.6c0.1-2.7-1-5.3-2.8-7.1c-2.8-2.4-5.9-4.2-9.3-5.3c-11.8-4.5-17.6-11.2-17.6-19.9
		c-0.1-5.4,2.1-10.6,6.1-14c4.6-3.9,10.5-5.8,16.5-5.4c5.3-0.1,10.5,0.9,15.3,3.2l-2.6,9c-4-2.2-8.4-3.2-12.9-3.2
		c-3.3-0.1-6.4,0.8-8.9,2.8c-1.8,1.5-2.8,3.9-2.8,6.3c0,2.6,1.1,5.1,3.1,6.8c3,2.3,6.3,4.1,9.8,5.4c4.9,1.8,9.3,4.6,12.8,8.5
		C440,133.6,441.5,137.8,441.2,142.2L441.2,142.2z M476.9,120.1H465v24.3c0,6.2,2.1,9.3,6.4,9.3c1.6,0,3.3-0.1,4.8-0.5l0.3,8.5
		c-2.8,0.9-5.5,1.3-8.4,1.2c-3.8,0.3-7.4-1.3-10-4c-2.8-3.9-4-8.8-3.6-13.5v-25.1h-7.1v-8.4h7.1v-9.3l10.6-3.2v12.5H477
		C476.9,111.7,476.9,120.1,476.9,120.1z M530.7,136.3c0.3,6.9-2,13.6-6.4,18.9c-4.5,5.1-11,7.9-17.8,7.6c-6.5,0.3-12.8-2.3-17-7.3
		c-4.3-5-6.5-11.7-6.4-18.4c-0.3-6.9,2-13.8,6.5-19c4.5-5,11-7.7,17.6-7.5c6.5-0.3,12.8,2.4,17.3,7.3
		C528.7,123,530.9,129.6,530.7,136.3L530.7,136.3z M519.4,136.7c0.1-4.1-0.9-8.2-2.9-11.8c-1.9-3.7-5.6-6-9.6-6
		c-4.1-0.1-8,2.2-9.9,6c-2,3.7-3,7.9-2.9,12.1c-0.1,4.1,0.9,8.2,2.9,11.8c1.9,3.7,5.8,6,9.8,6c4.1,0,7.9-2.3,9.6-6
		C518.5,144.9,519.5,140.8,519.4,136.7z M565.7,121.5c-1.1-0.1-2.3-0.3-3.5-0.3c-3.5-0.1-6.8,1.5-8.8,4.4c-1.9,3-2.9,6.3-2.8,9.8
		v26.3h-10.8l0.1-34.2c0-5.8-0.1-10.9-0.4-15.7h9.4l0.4,9.5h0.3c1-3.1,2.9-5.9,5.4-7.9c2.3-1.8,5-2.7,7.8-2.7c0.9,0,1.9,0.1,2.8,0.3
		L565.7,121.5L565.7,121.5z M614,134.4c0,1.7-0.1,3.3-0.4,5h-32.4c-0.1,4.2,1.5,8.5,4.8,11.3c3,2.4,6.8,3.7,10.6,3.5
		c4.5,0,8.9-0.8,13.1-2.3l1.6,7.7c-5.1,2.2-10.8,3.2-16.3,3.1c-6.6,0.4-13-2.1-17.8-6.8c-4.5-5-6.8-11.6-6.5-18.3
		c-0.3-6.8,1.9-13.5,6-18.8s10.4-8.2,17-8c6.3-0.4,12.4,2.7,15.9,8C612.6,123.3,614.1,128.7,614,134.4z M603.6,131.4
		c0.1-3-0.6-5.9-2.1-8.5c-1.8-3.1-5.1-4.9-8.6-4.6c-3.4,0-6.6,1.7-8.5,4.5c-1.9,2.4-3,5.5-3.1,8.6H603.6z"/>
	<g>
		<path class="st1" d="M235.3,55.6h-13l-3,8.5h-6.1L225,31.9h7.9l11.6,32.2h-6.3L235.3,55.6z M233.5,50.5L229,37.3h-0.5l-4.6,13.1
			L233.5,50.5L233.5,50.5z"/>
		<path class="st1" d="M244,39.1h6.1l6.1,19h0.3l6.1-19h6l-9,25h-6.9L244,39.1z"/>
		<path class="st1" d="M291.4,46.7v17.5h-5l-0.6-3.2c-1.3,2.2-4.1,3.6-8.1,3.6c-5.5,0-8.4-2.4-8.4-7.6c0-5.9,3.5-8,9.9-8h6.5v-1.2
			c0-3-1-4.5-5.5-4.5c-1.8,0-3.5,0.1-5.3,0.5v-5c1.9-0.4,4-0.4,5.8-0.4C288.8,38.6,291.4,41.7,291.4,46.7z M285.8,56.5v-3.3H280
			c-3.5,0-5,0.6-5,3.6c0,2.2,1.1,3.2,4,3.2C282.3,60.1,284.7,58.7,285.8,56.5z"/>
		<path class="st1" d="M298.2,32.2c0-2.8,0.6-3.1,3.3-3.1c2.5,0,3.3,0.3,3.3,3.1s-0.6,3.1-3.3,3.1S298.2,34.9,298.2,32.2z
			 M298.4,39.1h5.6v25h-5.6V39.1z"/>
		<path class="st1" d="M311.2,58.3V29h5.6v27.9c0,2.3,0.5,2.8,2.1,2.8c0.5,0,1,0,1.5-0.1v4.5c-0.8,0.1-1.8,0.3-2.8,0.3
			C312.8,64.4,311.2,62.5,311.2,58.3z"/>
		<path class="st1" d="M345.1,46.7v17.5h-5l-0.6-3.2c-1.3,2.2-4.1,3.6-8.1,3.6c-5.5,0-8.4-2.4-8.4-7.6c0-5.9,3.5-8,9.9-8h6.5v-1.2
			c0-3-1-4.5-5.5-4.5c-1.8,0-3.5,0.1-5.3,0.5v-5c1.9-0.4,4-0.4,5.8-0.4C342.6,38.6,345.1,41.7,345.1,46.7z M339.4,56.5v-3.3h-5.8
			c-3.5,0-5,0.6-5,3.6c0,2.2,1.1,3.2,4,3.2C336.1,60.1,338.4,58.7,339.4,56.5z"/>
		<path class="st1" d="M375.3,51.6c0,7.1-1.9,13-9.8,13c-4.6,0-6.6-1.7-7.6-4.2l-0.5,3.9h-5.1V29h5.6v13.8c1-2.2,3-4,7.5-4
			C373.5,38.6,375.3,43.8,375.3,51.6z M369.5,51.6c0-4.8-0.6-8.5-5.5-8.5s-6.3,3.1-6.3,8.5c0,5.1,1.4,8.5,6.3,8.5
			C368.8,60.1,369.5,56.1,369.5,51.6z"/>
		<path class="st1" d="M381.1,58.3V29h5.6v27.9c0,2.3,0.5,2.8,2.1,2.8c0.5,0,1,0,1.5-0.1v4.5c-0.8,0.1-1.8,0.3-2.8,0.3
			C382.7,64.4,381.1,62.5,381.1,58.3z"/>
		<path class="st1" d="M414.9,52.8l-15.9,1c0.1,4.2,2.1,6.2,7,6.2c2.9,0,6.3-0.9,7.9-1.7v4.8c-1.5,0.9-5,1.7-8.9,1.7
			c-7.4,0-11.6-2.8-11.6-13s4.3-13,11.6-13c8.4,0,10.1,4.9,10.1,10.8C415,50.7,415,51.9,414.9,52.8z M409.9,48.8
			c0-3.1-0.6-5.8-5-5.8c-4.5,0-5.9,2.3-6,6.6L409.9,48.8z"/>
		<path class="st1" d="M431,51.6c0-10.2,4.3-13,11.6-13s11.8,2.8,11.8,13s-4.3,13-11.8,13C435.2,64.6,431,61.8,431,51.6z
			 M448.6,51.6c0-6.4-1.5-8.5-5.9-8.5c-4.5,0-5.9,2.1-5.9,8.5s1.5,8.5,5.9,8.5C447.2,60.1,448.6,58,448.6,51.6z"/>
		<path class="st1" d="M481.6,47v17.1H476V48.6c0-3.5-0.8-5.1-4.1-5.1c-2.9,0-4.9,0.8-6,4v16.7h-5.6V39.1h5.6v3.1
			c1.4-2.6,4.3-3.6,7.6-3.6C479.6,38.6,481.6,41.7,481.6,47z"/>
		<path class="st1" d="M506.2,43.8v12.1c0,3.2,0.5,4,3,4c0.9,0,1.5,0,2.3-0.3v4.6c-1,0.1-2,0.3-3,0.3c-5.8,0-7.9-1.5-7.9-8.1V43.9
			h-3.4v-4.6h3.4v-5.9h5.6v5.9h5.4v4.6h-5.4V43.8z"/>
		<path class="st1" d="M537.3,47v17.1h-5.6V48.6c0-3.5-0.8-5.1-4.1-5.1c-2.9,0-5,0.9-6,4.1v16.6H516V29h5.6v13.4
			c1.4-2.7,4.3-3.7,7.6-3.7C535.3,38.6,537.3,41.7,537.3,47z"/>
		<path class="st1" d="M564.6,52.8l-15.9,1c0.1,4.2,2.1,6.2,7,6.2c2.9,0,6.3-0.9,7.9-1.7v4.8c-1.5,0.9-5,1.7-8.9,1.7
			c-7.4,0-11.6-2.8-11.6-13s4.3-13,11.6-13c8.4,0,10.1,4.9,10.1,10.8C564.8,50.7,564.7,51.9,564.6,52.8z M559.6,48.8
			c0-3.1-0.6-5.8-5-5.8c-4.5,0-5.9,2.3-6,6.6L559.6,48.8z"/>
	</g>
	<path class="st1" d="M69.5,43.5v115.2c0,4.9,3.8,8.8,8.5,8.8h72.4c4.6,0,8.5-4,8.5-8.8V43.5c0-4.9-3.8-8.8-8.5-8.8H78
		C73.3,34.7,69.5,38.7,69.5,43.5z M103.3,41.3h21.8c0.8,0,1.4,0.6,1.4,1.4v0.6c0,0.8-0.6,1.4-1.4,1.4h-21.6c-0.8,0-1.4-0.6-1.4-1.4
		v-0.6C101.9,42,102.6,41.3,103.3,41.3z M114.6,163.3c-3.8,0.3-6.9-3-6.6-6.9c0.1-3.3,2.8-6,6-6.3c3.8-0.3,6.9,3,6.6,6.9
		C120.3,160.5,117.7,163.2,114.6,163.3z M142.8,145.4H85.5c-1.5,0-2.9-1.3-2.9-3V53.9c0-1.7,1.3-3,2.9-3h57.3c1.5,0,2.9,1.3,2.9,3
		v88.5C145.7,144.1,144.3,145.4,142.8,145.4z"/>
</g>
</svg>
