<svg 
 xmlns="http://www.w3.org/2000/svg"
 xmlns:xlink="http://www.w3.org/1999/xlink"
 width="42px" height="42px">
<path fill-rule="evenodd"  fill="rgb(255, 255, 255)"
 d="M41.853,18.422 C41.679,16.916 41.332,15.468 40.810,14.019 C39.940,11.586 38.665,9.385 37.042,7.473 C35.129,5.214 32.810,3.418 30.086,2.086 C28.289,1.217 26.434,0.637 24.463,0.290 C24.057,0.232 23.709,0.174 23.303,0.116 C23.014,0.058 22.724,0.058 22.434,0.058 C21.796,-0.000 21.159,-0.000 20.521,-0.000 C20.115,-0.000 19.709,0.058 19.304,0.058 C17.101,0.232 15.014,0.753 12.927,1.564 C10.840,2.433 8.985,3.534 7.304,4.982 C4.869,7.068 3.014,9.501 1.739,12.397 C0.985,14.077 0.464,15.873 0.174,17.727 C0.116,18.074 0.058,18.480 0.000,18.828 L0.000,21.319 C0.058,21.492 0.000,21.724 0.000,21.898 C0.058,22.941 0.174,23.983 0.348,25.026 C0.870,27.575 1.797,29.950 3.188,32.152 C4.637,34.469 6.492,36.439 8.695,38.061 C10.724,39.509 12.927,40.610 15.362,41.247 C16.405,41.537 17.449,41.768 18.550,41.884 C18.956,41.942 19.304,41.942 19.709,42.000 L21.274,42.000 C21.448,41.942 21.680,42.000 21.854,42.000 C22.434,42.000 23.014,41.942 23.593,41.884 C24.811,41.710 25.970,41.479 27.129,41.131 C30.144,40.204 32.868,38.698 35.187,36.554 C37.911,34.063 39.824,31.051 40.984,27.575 C41.390,26.417 41.621,25.258 41.795,24.041 C41.853,23.636 41.911,23.172 41.911,22.767 C41.969,22.014 42.027,21.319 41.969,20.566 C41.969,19.870 41.969,19.117 41.853,18.422 L41.853,18.422 ZM30.839,11.065 C30.318,11.181 29.854,11.007 29.448,10.659 C29.216,10.428 28.984,10.138 28.868,9.848 C28.810,9.674 28.694,9.501 28.578,9.327 C28.347,9.037 28.057,8.921 27.709,8.979 C27.419,9.037 27.129,9.153 26.897,9.385 C26.086,10.196 25.564,11.181 25.216,12.281 C24.811,13.556 24.521,14.888 24.231,16.163 C24.173,16.568 24.057,16.916 23.999,17.321 C23.999,17.379 23.999,17.437 24.057,17.437 C25.216,17.611 26.434,17.785 27.593,17.959 C28.115,18.017 28.636,18.132 29.158,18.190 C29.216,18.190 29.274,18.248 29.216,18.306 C29.100,18.943 29.042,19.581 28.926,20.218 C28.926,20.276 28.868,20.334 28.810,20.276 C27.883,20.160 26.955,19.986 26.028,19.870 C25.216,19.754 24.463,19.639 23.651,19.523 C23.593,19.523 23.535,19.523 23.535,19.639 C23.419,20.334 23.303,21.087 23.187,21.782 C23.187,21.840 23.187,21.898 23.303,21.898 C23.825,21.956 24.405,22.072 24.926,22.130 C25.738,22.246 26.492,22.361 27.303,22.477 L28.521,22.651 C28.578,22.651 28.636,22.651 28.636,22.767 C28.521,23.404 28.463,24.041 28.347,24.679 C28.347,24.737 28.289,24.794 28.231,24.737 C27.767,24.679 27.303,24.621 26.897,24.563 C26.086,24.447 25.332,24.331 24.521,24.215 C23.999,24.157 23.419,24.041 22.898,23.983 C22.782,23.983 22.782,23.983 22.724,24.099 C22.376,25.548 22.028,26.996 21.564,28.386 C21.332,29.197 21.043,30.008 20.637,30.819 C20.347,31.399 19.999,31.920 19.593,32.383 C19.014,33.137 18.376,33.774 17.564,34.295 C16.985,34.643 16.347,34.932 15.651,34.990 C14.956,35.048 14.260,34.932 13.623,34.643 C13.043,34.411 12.579,34.063 12.115,33.658 C11.884,33.426 11.652,33.137 11.594,32.789 C11.478,32.268 11.884,31.688 12.405,31.572 L12.695,31.572 C13.391,31.572 13.854,31.920 14.202,32.441 C14.318,32.557 14.376,32.731 14.434,32.905 L14.608,33.252 C14.898,33.658 15.246,33.832 15.767,33.658 C16.115,33.542 16.347,33.310 16.579,33.021 C17.101,32.326 17.449,31.630 17.738,30.819 C18.260,29.545 18.608,28.212 18.898,26.938 C19.188,25.837 19.419,24.737 19.651,23.636 C19.651,23.578 19.651,23.520 19.593,23.520 C19.014,23.462 18.376,23.346 17.796,23.230 C17.043,23.114 16.289,22.999 15.594,22.883 L14.550,22.709 C14.434,22.709 14.434,22.651 14.434,22.593 C14.492,22.072 14.608,21.550 14.666,21.029 C14.666,20.913 14.724,20.797 14.724,20.739 C14.724,20.681 14.782,20.623 14.840,20.623 C15.072,20.681 15.362,20.681 15.594,20.739 C16.405,20.855 17.275,20.971 18.086,21.087 C18.724,21.203 19.361,21.261 19.999,21.377 C20.057,21.377 20.115,21.377 20.115,21.319 L20.463,19.233 C20.521,19.059 20.521,19.059 20.347,19.059 C19.709,18.943 19.072,18.886 18.434,18.770 C17.622,18.654 16.869,18.538 16.057,18.422 C15.767,18.364 15.536,18.364 15.246,18.306 C15.130,18.306 15.130,18.306 15.130,18.132 C15.246,17.495 15.304,16.858 15.420,16.279 C15.420,16.221 15.478,16.163 15.536,16.221 C16.115,16.337 16.753,16.394 17.333,16.510 C18.202,16.626 19.014,16.742 19.883,16.858 L20.927,17.032 C21.043,17.032 21.043,17.032 21.043,16.916 C21.216,16.221 21.390,15.526 21.622,14.830 C21.912,13.788 22.318,12.803 22.782,11.818 C23.071,11.239 23.419,10.717 23.825,10.254 C24.347,9.617 24.926,8.979 25.680,8.516 C26.318,8.110 26.955,7.821 27.709,7.705 C28.289,7.647 28.926,7.705 29.448,7.937 C30.144,8.226 30.839,8.574 31.361,9.153 C31.535,9.385 31.709,9.617 31.767,9.906 C31.767,10.312 31.361,10.949 30.839,11.065 L30.839,11.065 Z"/>
</svg>
