<?xml version="1.0" standalone="no"?><!DOCTYPE svg PUBLIC "-//W3C//DTD SVG 1.1//EN" "http://www.w3.org/Graphics/SVG/1.1/DTD/svg11.dtd"><svg t="1646100745709" class="icon" viewBox="0 0 1024 1024" version="1.1" xmlns="http://www.w3.org/2000/svg" p-id="7112" xmlns:xlink="http://www.w3.org/1999/xlink" width="200" height="200"><defs><style type="text/css"></style></defs><path d="M525.271008 322.869322a161.058357 161.058357 0 0 0-122.92616 49.822726q-1.254349 1.354696-2.408349 2.709393a206.365427 206.365427 0 0 0-46.160028 141.390171 25.086971 25.086971 0 0 1 0 2.759566 195.678377 195.678377 0 0 0 47.113333 137.225734 157.496007 157.496007 0 0 0 120.116419 50.675682 156.843745 156.843745 0 0 0 95.631535-28.197755c1.154001-0.852957 2.308001-1.705914 3.361654-2.659219a163.617228 163.617228 0 0 0 38.182371-47.815768 37.27924 37.27924 0 0 0-21.62497-52.93351h-0.602087a36.7775 36.7775 0 0 0-44.253418 19.316968 112.841198 112.841198 0 0 1-19.316968 27.99706c-1.003479 1.003479-2.057132 2.006958-3.160958 2.960263a74.157088 74.157088 0 0 1-49.070116 17.661228 80.980744 80.980744 0 0 1-62.968299-27.545495 37.479935 37.479935 0 0 1-3.612523-5.017394 158.04792 158.04792 0 0 1-23.682102-95.330491 28.298104 28.298104 0 0 0 0-4.616003 147.762262 147.762262 0 0 1 24.033319-91.36675 34.469499 34.469499 0 0 1 3.512176-4.565829 83.288745 83.288745 0 0 1 64.021951-27.595669 75.612132 75.612132 0 0 1 67.584301 36.777501 37.329413 37.329413 0 0 0 40.59072 17.711401 37.27924 37.27924 0 0 0 22.628448-56.696555 152.980352 152.980352 0 0 0-16.356705-20.972708 46.711941 46.711941 0 0 0-2.759567-2.709393 151.42496 151.42496 0 0 0-107.924151-39.085502z" fill="#6783e9" p-id="7113" data-spm-anchor-id="a313x.7781069.0.i13" class="selected"></path><path d="M513.229262 105.36528l23.330883 18.564359 0.501739 0.401391 0.451566 0.351218a518.648047 518.648047 0 0 0 315.142535 107.372238h7.475918c5.017394 0 10.43618 0 15.704444-0.25087V612.122103a268.982508 268.982508 0 0 1-172.397668 234.211965l-2.207653 0.852957-2.15748 0.953305-186.29585 84.442746-185.141849-84.141702-2.107306-0.953305-2.157479-0.852957a269.484247 269.484247 0 0 1-172.397668-234.211965V232.004312c5.268264 0 10.486354 0 15.704444 0.301043h6.622961a518.246656 518.246656 0 0 0 315.794796-107.924151l0.451566-0.301043 0.401391-0.351218 23.28071-18.363663m0-91.918663a35.37263 35.37263 0 0 0-22.076535 7.927483l-50.173943 40.139154A437.015042 437.015042 0 0 1 173.300799 152.528786h-6.020873a454.124357 454.124357 0 0 1-55.994121-3.56235h-3.863393a37.27924 37.27924 0 0 0-23.782449 8.981136 35.874369 35.874369 0 0 0-11.790877 26.391494v430.392082a348.809251 348.809251 0 0 0 223.274046 306.462443l203.85673 92.621099a41.895242 41.895242 0 0 0 14.650791 2.960262h0.551914a28.197756 28.197756 0 0 0 13.647312-3.512176l203.756382-92.621098a348.207164 348.207164 0 0 0 223.32422-306.462443V183.887501a35.12176 35.12176 0 0 0-35.12176-35.12176h-4.314959a443.537655 443.537655 0 0 1-55.893773 3.56235h-6.974178a437.416434 437.416434 0 0 1-267.075898-90.965359l-50.173943-39.888284a35.12176 35.12176 0 0 0-22.126708-7.877309z" fill="#999999" p-id="7114" data-spm-anchor-id="a313x.7781069.0.i9" class=""></path></svg>